<svg width="192" height="192" viewBox="0 0 192 192" fill="none" xmlns="http://www.w3.org/2000/svg">
<path fill-rule="evenodd" clip-rule="evenodd" d="M167.804 33.9123C168.072 35.3449 168.316 36.7238 168.537 38.0935C169.882 46.4716 170.315 54.5019 169.636 72.3632C169.605 73.2035 169.569 74.0658 169.533 74.951C170.435 74.9113 171.295 74.8759 172.112 74.8452C179.183 74.5812 183.237 74.671 186.91 75.2636C187.849 75.4148 188.762 75.5988 189.695 75.8182C189.466 74.87 189.232 73.938 188.993 73.0219C184.494 55.8266 177.995 44.1961 170.942 36.8668C169.906 35.7906 168.859 34.8071 167.804 33.9123Z" fill="#F12300"/>
<path fill-rule="evenodd" clip-rule="evenodd" d="M145.339 12.8146C118.574 20.741 106.65 29.3904 89.4615 50.3854C96.5289 58.8859 101.457 68.029 110.876 89.0681C111.221 89.8375 111.57 90.6225 111.928 91.4244C112.718 91.045 113.492 90.6747 114.251 90.3131C129.763 82.9281 139.382 79.1763 156.86 75.5291C159.494 50.8928 158.089 37.1388 145.339 12.8146Z" fill="#F12300"/>
<path fill-rule="evenodd" clip-rule="evenodd" d="M128.922 4.7226C127.479 4.37715 126.057 4.04954 124.652 3.74018C94.1886 -2.97458 72.6473 -1.1047 46.322 13.0844C45.4418 13.5587 44.5565 14.0468 43.6653 14.5488C44.564 15.0519 45.4403 15.5469 46.296 16.0353C59.7395 23.7077 68.0968 29.7221 78.6194 39.1235C79.2488 39.6859 79.8862 40.2603 80.5326 40.848C81.1141 40.1981 81.6895 39.5604 82.2587 38.9346C98.0184 21.6095 109.274 13.4154 124.92 6.44282C126.221 5.86247 127.554 5.29059 128.922 4.7226Z" fill="#F12300"/>
<path fill-rule="evenodd" clip-rule="evenodd" d="M192 89.1125C190.601 122.799 185.66 144.403 162.045 166.566C139.216 187.99 115.269 193.786 86.0829 191.553C84.5361 191.435 82.9743 191.294 81.3973 191.131C82.7984 190.387 84.1765 189.651 85.5322 188.921C138.081 160.634 157.169 142.652 167.442 110.665C167.763 109.66 168.077 108.642 168.383 107.609C167.37 107.958 166.367 108.306 165.379 108.652C131.666 120.473 112.131 131.269 80.7528 157.775C79.9202 158.479 79.0791 159.193 78.229 159.919C78.2059 158.8 78.1791 157.695 78.149 156.603C76.7735 106.735 68.1398 84.1171 41.3589 56.7531C40.6989 56.0787 40.0279 55.4013 39.3455 54.7207C39.0245 55.6291 38.7107 56.5304 38.4036 57.4246C21.7429 105.935 25.4783 133.683 52.0367 178.568C52.9629 180.133 53.9171 181.719 54.8989 183.328C53.2775 182.366 51.6928 181.399 50.1449 180.425C22.3828 162.961 6.42301 143.387 1.32564 110.21C-4.094 74.934 7.36054 49.2726 30.9926 23.797C74.9036 44.4106 89.226 63.6733 102.01 110.769C102.244 111.633 102.478 112.506 102.713 113.389C103.476 112.89 104.233 112.399 104.984 111.916C137.51 90.964 156.942 85.2369 192 89.1125Z" fill="#F12300"/>
</svg>
