<svg width="128" height="128" viewBox="0 0 128 128" fill="none" xmlns="http://www.w3.org/2000/svg">
<path fill-rule="evenodd" clip-rule="evenodd" d="M111.87 22.6082C112.048 23.5633 112.211 24.4826 112.358 25.3957C113.255 30.9811 113.543 36.3346 113.09 48.2422C113.07 48.8024 113.046 49.3772 113.022 49.9674C113.624 49.9409 114.196 49.9173 114.742 49.8968C119.455 49.7208 122.158 49.7807 124.607 50.1757C125.232 50.2765 125.841 50.3992 126.464 50.5455C126.311 49.9133 126.155 49.292 125.995 48.6813C122.996 37.2177 118.663 29.4641 113.961 24.5779C113.27 23.8604 112.573 23.2047 111.87 22.6082Z" fill="#F12300"/>
<path fill-rule="evenodd" clip-rule="evenodd" d="M96.8929 8.54306C79.0495 13.8273 71.1 19.5936 59.641 33.5903C64.3525 39.2572 67.638 45.3526 73.9173 59.3787C74.1471 59.8916 74.3803 60.415 74.6186 60.9496C75.145 60.6967 75.6612 60.4498 76.167 60.2087C86.5085 55.2854 92.9216 52.7842 104.573 50.3527C106.329 33.9285 105.393 24.7592 96.8929 8.54306Z" fill="#F12300"/>
<path fill-rule="evenodd" clip-rule="evenodd" d="M85.9481 3.1484C84.9861 2.9181 84.0379 2.6997 83.1016 2.49345C62.7924 -1.98305 48.4316 -0.736465 30.8814 8.72293C30.2946 9.03913 29.7044 9.36452 29.1102 9.69919C29.7094 10.0346 30.2936 10.3646 30.864 10.6902C39.8264 15.8051 45.3979 19.8147 52.413 26.0823C52.8326 26.4572 53.2575 26.8402 53.6884 27.232C54.0761 26.7988 54.4597 26.3736 54.8392 25.9564C65.3456 14.4063 72.8493 8.94359 83.28 4.29521C84.1476 3.90831 85.0358 3.52706 85.9481 3.1484Z" fill="#F12300"/>
<path fill-rule="evenodd" clip-rule="evenodd" d="M128 59.4083C127.067 81.8663 123.773 96.2685 108.03 111.044C92.8104 125.327 76.8463 129.19 57.3886 127.702C56.3574 127.623 55.3162 127.529 54.2649 127.421C55.1989 126.925 56.1177 126.434 57.0215 125.947C92.0542 107.09 104.779 95.1015 111.628 73.7765C111.842 73.1068 112.051 72.4279 112.255 71.7392C111.58 71.972 110.911 72.2037 110.253 72.435C87.7777 80.3154 74.7543 87.5125 53.8352 105.183C53.2801 105.652 52.7194 106.129 52.1527 106.613C52.1373 105.867 52.1194 105.13 52.0994 104.402C51.1823 71.1564 45.4265 56.078 27.5726 37.8354C27.1326 37.3858 26.6852 36.9342 26.2303 36.4805C26.0163 37.0861 25.8071 37.6869 25.6024 38.2831C14.4953 70.6234 16.9856 89.1217 34.6911 119.045C35.3086 120.089 35.9448 121.146 36.5993 122.219C35.5183 121.577 34.4619 120.932 33.4299 120.283C14.9219 108.641 4.28201 95.5913 0.883763 73.4731C-2.72934 49.956 4.90703 32.8484 20.6618 15.8647C49.9357 29.607 59.484 42.4489 68.0069 73.846C68.1629 74.422 68.319 75.0041 68.475 75.5927C68.9843 75.2599 69.4884 74.9325 69.9891 74.6106C91.6735 60.6426 104.628 56.8246 128 59.4083Z" fill="#F12300"/>
</svg>
