<svg width="168" height="168" viewBox="0 0 168 168" fill="none" xmlns="http://www.w3.org/2000/svg">
<path fill-rule="evenodd" clip-rule="evenodd" d="M146.829 29.6733C147.063 30.9268 147.277 32.1334 147.47 33.3318C148.647 40.6627 149.025 47.6891 148.431 63.3178C148.404 64.0531 148.373 64.8076 148.341 65.5822C149.131 65.5474 149.883 65.5164 150.598 65.4896C156.785 65.2586 160.332 65.3371 163.546 65.8556C164.368 65.988 165.166 66.149 165.983 66.3409C165.783 65.5113 165.578 64.6958 165.369 63.8941C161.433 48.8483 155.746 38.6716 149.574 32.2585C148.667 31.3168 147.751 30.4562 146.829 29.6733Z" fill="#F12300"/>
<path fill-rule="evenodd" clip-rule="evenodd" d="M127.172 11.2128C103.753 18.1484 93.3189 25.7166 78.2789 44.0872C84.4628 51.5251 88.7749 59.5253 97.0166 77.9346C97.3181 78.6077 97.6242 79.2947 97.9371 79.9963C98.628 79.6644 99.3054 79.3403 99.9693 79.0239C113.543 72.562 121.96 69.2792 137.252 66.0879C139.557 44.5312 138.328 32.4964 127.172 11.2128Z" fill="#F12300"/>
<path fill-rule="evenodd" clip-rule="evenodd" d="M112.807 4.13227C111.544 3.83001 110.3 3.54335 109.071 3.27266C82.415 -2.60276 63.5664 -0.96661 40.5318 11.4488C39.7616 11.8639 38.987 12.2909 38.2072 12.7302C38.9935 13.1704 39.7603 13.6035 40.509 14.0308C52.2721 20.7442 59.5847 26.0068 68.792 34.2331C69.3428 34.7251 69.9005 35.2278 70.466 35.742C70.9749 35.1734 71.4783 34.6154 71.9764 34.0678C85.7661 18.9083 95.6147 11.7385 109.305 5.63747C110.444 5.12966 111.61 4.62926 112.807 4.13227Z" fill="#F12300"/>
<path fill-rule="evenodd" clip-rule="evenodd" d="M168 77.9735C166.776 107.45 162.452 126.352 141.79 145.745C121.814 164.492 100.861 169.562 75.3226 167.609C73.9691 167.505 72.6025 167.382 71.2227 167.24C72.4486 166.589 73.6544 165.945 74.8407 165.306C120.821 140.555 137.523 124.821 146.511 96.8316C146.793 95.9527 147.067 95.0616 147.335 94.1577C146.448 94.4632 145.571 94.7674 144.707 95.0709C115.208 105.414 98.115 114.86 70.6587 138.053C69.9302 138.669 69.1942 139.294 68.4504 139.929C68.4301 138.95 68.4067 137.983 68.3804 137.027C67.1768 93.3928 59.6223 73.6024 36.1891 49.659C35.6116 49.0689 35.0244 48.4761 34.4273 47.8806C34.1464 48.6755 33.8719 49.4641 33.6031 50.2466C19.025 92.6932 22.2935 116.972 45.5321 156.247C46.3425 157.617 47.1775 159.005 48.0366 160.412C46.6178 159.57 45.2312 158.724 43.8768 157.872C19.585 142.591 5.62013 125.464 1.15994 96.4335C-3.58225 65.5672 6.44048 43.1135 27.1186 20.8224C65.5406 38.8593 78.0728 55.7142 89.259 96.9229C89.4638 97.6789 89.6686 98.4429 89.8734 99.2154C90.5419 98.7787 91.2035 98.3489 91.8607 97.9264C120.321 79.5935 137.325 74.5823 168 77.9735Z" fill="#F12300"/>
</svg>
