<svg width="144" height="144" viewBox="0 0 144 144" fill="none" xmlns="http://www.w3.org/2000/svg">
<path fill-rule="evenodd" clip-rule="evenodd" d="M125.853 25.4343C126.054 26.5087 126.237 27.5429 126.403 28.5702C127.412 34.8538 127.736 40.8764 127.227 54.2725C127.204 54.9027 127.177 55.5494 127.15 56.2133C127.827 56.1835 128.471 56.157 129.084 56.1339C134.387 55.9359 137.428 56.0033 140.182 56.4477C140.886 56.5611 141.571 56.6991 142.271 56.8637C142.1 56.1525 141.924 55.4536 141.745 54.7664C138.371 41.87 133.496 33.1471 128.207 27.6502C127.429 26.843 126.644 26.1053 125.853 25.4343Z" fill="#F12300"/>
<path fill-rule="evenodd" clip-rule="evenodd" d="M109.005 9.61096C88.9307 15.5558 79.9876 22.0428 67.0962 37.7891C72.3967 44.1644 76.0928 51.0217 83.157 66.8011C83.4155 67.3781 83.6779 67.9669 83.946 68.5683C84.5382 68.2838 85.1189 68.006 85.688 67.7348C97.3222 62.196 104.537 59.3822 117.645 56.6468C119.62 38.1696 118.567 27.8541 109.005 9.61096Z" fill="#F12300"/>
<path fill-rule="evenodd" clip-rule="evenodd" d="M96.6916 3.54195C95.6094 3.28287 94.5426 3.03716 93.4893 2.80514C70.6415 -2.23094 54.4855 -0.828523 34.7416 9.81329C34.0814 10.169 33.4174 10.5351 32.749 10.9116C33.423 11.2889 34.0803 11.6602 34.7221 12.0264C44.8047 17.7808 51.0726 22.2915 58.9646 29.3426C59.4367 29.7644 59.9147 30.1953 60.3995 30.636C60.8356 30.1486 61.2672 29.6703 61.6941 29.2009C73.5139 16.2071 81.9554 10.0615 93.69 4.83212C94.6661 4.39685 95.6653 3.96794 96.6916 3.54195Z" fill="#F12300"/>
<path fill-rule="evenodd" clip-rule="evenodd" d="M144 66.8344C142.951 92.0996 139.245 108.302 121.534 124.925C104.412 140.993 86.4521 145.339 64.5622 143.665C63.4021 143.576 62.2307 143.47 61.048 143.349C62.0988 142.791 63.1324 142.238 64.1492 141.691C103.561 120.476 117.877 106.989 125.581 82.9985C125.822 82.2452 126.058 81.4814 126.287 80.7065C125.527 80.9684 124.775 81.2292 124.034 81.4893C98.7499 90.3548 84.0986 98.4515 60.5646 118.331C59.9401 118.859 59.3093 119.395 58.6718 119.939C58.6544 119.1 58.6344 118.271 58.6118 117.452C57.5801 80.0509 51.1048 63.0878 31.0192 42.5648C30.5242 42.059 30.0209 41.5509 29.5091 41.0405C29.2684 41.7218 29.033 42.3977 28.8027 43.0684C16.3072 79.4513 19.1088 100.262 39.0275 133.926C39.7222 135.1 40.4379 136.29 41.1742 137.496C39.9581 136.774 38.7696 136.049 37.6087 135.319C16.7871 122.221 4.81726 107.54 0.994233 82.6573C-3.0705 56.2005 5.52041 36.9544 23.2445 17.8477C56.1777 33.3079 66.9195 47.755 76.5077 83.0767C76.6833 83.7247 76.8588 84.3796 77.0344 85.0417C77.6073 84.6674 78.1744 84.299 78.7377 83.9369C103.133 68.223 117.707 63.9276 144 66.8344Z" fill="#F12300"/>
</svg>
