<svg width="48" height="48" viewBox="0 0 48 48" fill="none" xmlns="http://www.w3.org/2000/svg">
<path fill-rule="evenodd" clip-rule="evenodd" d="M41.951 8.47808C42.0179 8.83623 42.079 9.18097 42.1343 9.52338C42.4706 11.6179 42.5786 13.6255 42.4089 18.0908C42.4012 18.3009 42.3922 18.5165 42.3832 18.7378C42.6089 18.7278 42.8236 18.719 43.0281 18.7113C44.7958 18.6453 45.8092 18.6678 46.7274 18.8159C46.9621 18.8537 47.1904 18.8997 47.4238 18.9546C47.3666 18.7175 47.3081 18.4845 47.2483 18.2555C46.1236 13.9567 44.4987 11.049 42.7355 9.21671C42.4764 8.94766 42.2147 8.70177 41.951 8.47808Z" fill="#F12300"/>
<path fill-rule="evenodd" clip-rule="evenodd" d="M36.3348 3.20366C29.6435 5.18526 26.6625 7.34761 22.3654 12.5964C24.1322 14.7215 25.3642 17.0072 27.719 22.267C27.8051 22.4594 27.8926 22.6556 27.982 22.8561C28.1794 22.7613 28.3729 22.6687 28.5626 22.5783C32.4407 20.732 34.8456 19.7941 39.2149 18.8823C39.8734 12.7232 39.5223 9.28471 36.3348 3.20366Z" fill="#F12300"/>
<path fill-rule="evenodd" clip-rule="evenodd" d="M32.2306 1.18065C31.8698 1.09429 31.5142 1.01239 31.1632 0.935045C23.5472 -0.743646 18.1619 -0.276174 11.5806 3.2711C11.3605 3.38967 11.1392 3.5117 10.9164 3.63719C11.1411 3.76296 11.3601 3.88673 11.5741 4.00881C14.9349 5.92693 17.0243 7.43052 19.6549 9.78087C19.8123 9.92146 19.9716 10.0651 20.1332 10.212C20.2786 10.0495 20.4224 9.89011 20.5647 9.73364C24.5047 5.40238 27.3185 3.35385 31.23 1.61071C31.5554 1.46562 31.8885 1.32265 32.2306 1.18065Z" fill="#F12300"/>
<path fill-rule="evenodd" clip-rule="evenodd" d="M48 22.2781C47.6502 30.6999 46.4149 36.1007 40.5114 41.6415C34.8039 46.9976 28.8174 48.4464 21.5207 47.8882C21.134 47.8587 20.7436 47.8235 20.3493 47.7829C20.6996 47.5969 21.0441 47.4127 21.3831 47.2303C34.5203 40.1586 39.2922 35.6631 41.8604 27.6662C41.9408 27.4151 42.0192 27.1605 42.0958 26.9022C41.8424 26.9895 41.5916 27.0764 41.3447 27.1631C32.9166 30.1183 28.0329 32.8172 20.1882 39.4438C19.98 39.6197 19.7698 39.7983 19.5573 39.9797C19.5515 39.7001 19.5448 39.4238 19.5373 39.1507C19.1934 26.6837 17.0349 21.0293 10.3397 14.1883C10.1747 14.0197 10.007 13.8503 9.83637 13.6802C9.75612 13.9073 9.67768 14.1326 9.6009 14.3562C5.43572 26.4838 6.36958 33.4206 13.0092 44.6419C13.2407 45.0333 13.4793 45.4299 13.7247 45.8321C13.3194 45.5914 12.9232 45.3497 12.5362 45.1062C5.5957 40.7404 1.60575 35.8468 0.331411 27.5524C-1.0235 18.7335 1.84014 12.3182 7.74816 5.94926C18.7259 11.1026 22.3065 15.9183 25.5026 27.6922C25.5611 27.9083 25.6196 28.1265 25.6781 28.3473C25.8691 28.2225 26.0581 28.0997 26.2459 27.979C34.3776 22.741 39.2356 21.3092 48 22.2781Z" fill="#F12300"/>
</svg>
