<svg width="72" height="72" viewBox="0 0 72 72" fill="none" xmlns="http://www.w3.org/2000/svg">
<path fill-rule="evenodd" clip-rule="evenodd" d="M62.9266 12.7171C63.0269 13.2543 63.1186 13.7714 63.2015 14.2851C63.706 17.4269 63.868 20.4382 63.6134 27.1362C63.6018 27.4513 63.5883 27.7747 63.5748 28.1066C63.9134 28.0917 64.2355 28.0785 64.5422 28.067C67.1937 27.968 68.7138 28.0016 70.0912 28.2238C70.4433 28.2806 70.7857 28.3496 71.1358 28.4318C71.0499 28.0762 70.9622 27.7268 70.8725 27.3832C69.1855 20.935 66.7481 16.5735 64.1034 13.8251C63.7147 13.4215 63.3221 13.0527 62.9266 12.7171Z" fill="#F12300"/>
<path fill-rule="evenodd" clip-rule="evenodd" d="M54.5023 4.8055C44.4654 7.7779 39.9938 11.0214 33.5481 18.8945C36.1983 22.0822 38.0464 25.5109 41.5785 33.4006C41.7078 33.6891 41.8389 33.9835 41.973 34.2842C42.2691 34.1419 42.5594 34.003 42.844 33.8674C48.6611 31.098 52.2684 29.6911 58.8224 28.3234C59.8101 19.0848 59.2835 13.9271 54.5023 4.8055Z" fill="#F12300"/>
<path fill-rule="evenodd" clip-rule="evenodd" d="M48.3458 1.77097C47.8047 1.64143 47.2713 1.51858 46.7447 1.40257C35.3207 -1.11547 27.2428 -0.414262 17.3708 4.90665C17.0407 5.08451 16.7087 5.26754 16.3745 5.45579C16.7115 5.64445 17.0401 5.83009 17.361 6.01322C22.4024 8.89039 25.5363 11.1458 29.4823 14.6713C29.7183 14.8822 29.9574 15.0976 30.1997 15.318C30.4178 15.0743 30.6336 14.8352 30.847 14.6005C36.7569 8.10356 40.9777 5.03077 46.845 2.41606C47.333 2.19843 47.8327 1.98397 48.3458 1.77097Z" fill="#F12300"/>
<path fill-rule="evenodd" clip-rule="evenodd" d="M72 33.4172C71.4753 46.0498 69.6224 54.1511 60.767 62.4623C52.2058 70.4964 43.226 72.6696 32.2811 71.8324C31.701 71.788 31.1154 71.7352 30.524 71.6743C31.0494 71.3953 31.5662 71.1191 32.0746 70.8454C51.7805 60.2379 58.9383 53.4946 62.7906 41.4993C62.9112 41.1226 63.0289 40.7407 63.1436 40.3533C62.7636 40.4842 62.3875 40.6146 62.0171 40.7447C49.3749 45.1774 42.0493 49.2258 30.2823 59.1657C29.9701 59.4295 29.6547 59.6974 29.3359 59.9696C29.3272 59.5501 29.3172 59.1357 29.3059 58.726C28.7901 40.0255 25.5524 31.5439 15.5096 21.2824C15.2621 21.0295 15.0104 20.7755 14.7546 20.5203C14.6342 20.8609 14.5165 21.1989 14.4013 21.5342C8.15359 39.7257 9.55438 50.131 19.5138 66.9629C19.8611 67.55 20.2189 68.1448 20.5871 68.7481C19.9791 68.3871 19.3848 68.0245 18.8043 67.6594C8.39356 61.1106 2.40863 53.7701 0.497117 41.3287C-1.53525 28.1003 2.7602 18.4772 11.6222 8.92389C28.0888 16.654 33.4598 23.8775 38.2539 41.5384C38.3416 41.8624 38.4294 42.1898 38.5172 42.5209C38.8037 42.3337 39.0872 42.1496 39.3689 41.9685C51.5664 34.1115 58.8534 31.9638 72 33.4172Z" fill="#F12300"/>
</svg>
