<svg width="512" height="512" viewBox="0 0 512 512" fill="none" xmlns="http://www.w3.org/2000/svg">
<path fill-rule="evenodd" clip-rule="evenodd" d="M447.478 90.4329C448.191 94.2532 448.843 97.9303 449.433 101.583C453.02 123.924 454.172 145.338 452.362 192.969C452.279 195.21 452.183 197.509 452.087 199.869C454.495 199.763 456.786 199.669 458.967 199.587C477.822 198.883 488.632 199.123 498.426 200.703C500.93 201.106 503.364 201.597 505.854 202.182C505.244 199.653 504.62 197.168 503.982 194.725C491.985 148.871 474.653 117.856 455.846 98.3116C453.082 95.4417 450.29 92.8189 447.478 90.4329Z" fill="#F12300"/>
<path fill-rule="evenodd" clip-rule="evenodd" d="M387.572 34.1722C316.198 55.3093 284.4 78.3743 238.564 134.361C257.41 157.029 270.552 181.41 295.669 237.515C296.588 239.566 297.521 241.66 298.475 243.798C300.58 242.787 302.645 241.799 304.668 240.835C346.034 221.141 371.687 211.137 418.293 201.411C425.316 135.714 421.571 99.0368 387.572 34.1722Z" fill="#F12300"/>
<path fill-rule="evenodd" clip-rule="evenodd" d="M343.792 12.5936C339.944 11.6724 336.151 10.7988 332.407 9.97382C251.17 -7.93222 193.726 -2.94586 123.525 34.8917C121.178 36.1565 118.818 37.4581 116.441 38.7967C118.837 40.1383 121.174 41.4584 123.456 42.7607C159.306 63.2206 181.592 79.2588 209.652 104.329C211.33 105.829 213.03 107.361 214.754 108.928C216.304 107.195 217.839 105.494 219.357 103.826C261.383 57.6253 291.397 35.7744 333.12 17.1809C336.59 15.6333 340.143 14.1082 343.792 12.5936Z" fill="#F12300"/>
<path fill-rule="evenodd" clip-rule="evenodd" d="M512 237.633C508.269 327.465 495.093 385.074 432.121 444.176C371.242 501.308 307.385 516.762 229.554 510.808C225.43 510.493 221.265 510.117 217.06 509.684C220.796 507.7 224.471 505.736 228.086 503.789C368.217 428.358 419.117 380.406 446.511 295.106C447.369 292.427 448.205 289.712 449.022 286.957C446.319 287.888 443.644 288.815 441.01 289.74C351.111 321.262 299.017 350.05 215.341 420.734C213.121 422.61 210.878 424.515 208.611 426.451C208.549 423.467 208.478 420.52 208.397 417.607C204.729 284.626 181.706 224.312 110.29 151.342C108.53 149.543 106.741 147.737 104.921 145.922C104.065 148.344 103.229 150.748 102.41 153.132C57.9811 282.494 67.9422 356.487 138.765 476.181C141.234 480.355 143.779 484.585 146.397 488.876C142.073 486.308 137.847 483.73 133.72 481.133C59.6875 434.564 17.128 382.365 3.53505 293.893C-10.9173 199.824 19.6281 131.393 82.647 63.4586C199.743 118.428 237.936 169.795 272.028 295.384C272.652 297.688 273.276 300.016 273.9 302.371C275.937 301.04 277.954 299.73 279.956 298.442C366.694 242.571 418.513 227.298 512 237.633Z" fill="#F12300"/>
</svg>
