<svg width="256" height="256" viewBox="0 0 256 256" fill="none" xmlns="http://www.w3.org/2000/svg">
<path fill-rule="evenodd" clip-rule="evenodd" d="M223.739 45.2164C224.096 47.1266 224.421 48.9652 224.716 50.7914C226.51 61.9622 227.086 72.6692 226.181 96.4843C226.14 97.6048 226.092 98.7544 226.044 99.9347C227.247 99.8817 228.393 99.8346 229.483 99.7936C238.911 99.4416 244.316 99.5614 249.213 100.351C250.465 100.553 251.682 100.798 252.927 101.091C252.622 99.8267 252.31 98.5841 251.991 97.3625C245.993 74.4355 237.327 58.9282 227.923 49.1558C226.541 47.7209 225.145 46.4095 223.739 45.2164Z" fill="#F12300"/>
<path fill-rule="evenodd" clip-rule="evenodd" d="M193.786 17.0862C158.099 27.6547 142.2 39.1872 119.282 67.1806C128.705 78.5145 135.276 90.7053 147.835 118.757C148.294 119.783 148.761 120.83 149.237 121.899C150.29 121.393 151.322 120.9 152.334 120.417C173.017 110.571 185.843 105.568 209.146 100.705C212.658 67.8571 210.786 49.5184 193.786 17.0862Z" fill="#F12300"/>
<path fill-rule="evenodd" clip-rule="evenodd" d="M171.896 6.2968C169.972 5.83621 168.076 5.39939 166.203 4.98691C125.585 -3.96611 96.8632 -1.47293 61.7627 17.4459C60.5892 18.0783 59.4088 18.729 58.2205 19.3984C59.4187 20.0691 60.5871 20.7292 61.7281 21.3803C79.6528 31.6103 90.7958 39.6294 104.826 52.1647C105.665 52.9145 106.515 53.6805 107.377 54.464C108.152 53.5975 108.919 52.7472 109.678 51.9128C130.691 28.8127 145.699 17.8872 166.56 8.59043C168.295 7.81663 170.072 7.05411 171.896 6.2968Z" fill="#F12300"/>
<path fill-rule="evenodd" clip-rule="evenodd" d="M256 118.817C254.134 163.733 247.546 192.537 216.061 222.088C185.621 250.654 153.693 258.381 114.777 255.404C112.715 255.246 110.632 255.058 108.53 254.842C110.398 253.85 112.235 252.868 114.043 251.895C184.108 214.179 209.558 190.203 223.256 147.553C223.684 146.214 224.103 144.856 224.511 143.478C223.16 143.944 221.822 144.407 220.505 144.87C175.555 160.631 149.509 175.025 107.67 210.367C106.56 211.305 105.439 212.257 104.305 213.225C104.275 211.733 104.239 210.26 104.199 208.803C102.365 142.313 90.853 112.156 55.1452 75.6707C54.2652 74.7715 53.3705 73.8683 52.4606 72.9608C52.0327 74.1721 51.6143 75.3737 51.2048 76.5661C28.9905 141.247 33.9711 178.243 69.3823 238.09C70.6172 240.178 71.8895 242.293 73.1986 244.438C71.0366 243.154 68.9237 241.865 66.8599 240.566C29.8438 217.282 8.56401 191.183 1.76753 146.946C-5.45867 99.9119 9.81406 65.6967 41.3235 31.7292C99.8715 59.214 118.968 84.8977 136.014 147.692C136.326 148.844 136.638 150.008 136.95 151.185C137.969 150.52 138.977 149.865 139.978 149.221C183.347 121.285 209.257 113.649 256 118.817Z" fill="#F12300"/>
</svg>
