<svg width="96" height="96" viewBox="0 0 96 96" fill="none" xmlns="http://www.w3.org/2000/svg">
<path fill-rule="evenodd" clip-rule="evenodd" d="M83.9021 16.9561C84.0358 17.6725 84.158 18.3619 84.2686 19.0467C84.9412 23.2358 85.1573 27.2509 84.8178 36.1816C84.8023 36.6018 84.7843 37.0329 84.7663 37.4755C85.2177 37.4556 85.6473 37.438 86.0562 37.4226C89.5916 37.2906 91.6184 37.3355 93.4548 37.6318C93.9243 37.7074 94.3808 37.7994 94.8476 37.9091C94.7332 37.435 94.6161 36.969 94.4965 36.5109C92.2472 27.9133 88.9974 22.0981 85.4711 18.4334C84.9528 17.8953 84.4294 17.4035 83.9021 16.9561Z" fill="#F12300"/>
<path fill-rule="evenodd" clip-rule="evenodd" d="M72.6698 6.40732C59.2872 10.3705 53.3251 14.6952 44.7308 25.1927C48.2645 29.4429 50.7286 34.0145 55.4381 44.5341C55.6104 44.9187 55.7853 45.3113 55.9641 45.7122C56.3589 45.5225 56.746 45.3373 57.1253 45.1566C64.8815 41.464 69.6913 39.5882 78.43 37.7646C79.7469 25.4464 79.0447 18.5694 72.6698 6.40732Z" fill="#F12300"/>
<path fill-rule="evenodd" clip-rule="evenodd" d="M64.461 2.3613C63.7395 2.18858 63.0284 2.02477 62.3262 1.87009C47.0943 -1.48729 36.3237 -0.552349 23.161 6.5422C22.7209 6.77935 22.2783 7.02339 21.8326 7.27439C22.282 7.52593 22.7201 7.77346 23.148 8.01763C29.8698 11.8539 34.0484 14.861 39.3097 19.5617C39.6244 19.8429 39.9431 20.1302 40.2663 20.424C40.5571 20.0991 40.8447 19.7802 41.1294 19.4673C49.0092 10.8048 54.6369 6.70769 62.4599 3.22141C63.1107 2.93124 63.7768 2.64529 64.461 2.3613Z" fill="#F12300"/>
<path fill-rule="evenodd" clip-rule="evenodd" d="M96 44.5563C95.3004 61.3997 92.8299 72.2014 81.0227 83.2831C69.6078 93.9952 57.6347 96.8928 43.0415 95.7765C42.268 95.7174 41.4871 95.6469 40.6987 95.5657C41.3992 95.1937 42.0882 94.8254 42.7661 94.4605C69.0406 80.3172 78.5844 71.3261 83.7208 55.3324C83.8816 54.8301 84.0385 54.3209 84.1915 53.8044C83.6848 53.979 83.1833 54.1528 82.6894 54.3262C65.8332 60.2366 56.0657 65.6344 40.3764 78.8875C39.9601 79.2393 39.5396 79.5965 39.1145 79.9595C39.1029 79.4001 39.0896 78.8475 39.0745 78.3013C38.3867 53.3673 34.0699 42.0585 20.6795 28.3765C20.3495 28.0394 20.0139 27.7006 19.6727 27.3603C19.5122 27.8146 19.3554 28.2652 19.2018 28.7123C10.8714 52.9675 12.7392 66.8413 26.0183 89.2839C26.4815 90.0666 26.9586 90.8597 27.4495 91.6642C26.6387 91.1828 25.8464 90.6993 25.0725 90.2125C11.1914 81.4807 3.2115 71.6935 0.662822 55.1049C-2.047 37.467 3.68027 24.6363 15.4963 11.8985C37.4518 22.2053 44.613 31.8367 51.0052 55.3845C51.1222 55.8165 51.2392 56.2531 51.3563 56.6945C51.7382 56.4449 52.1163 56.1994 52.4918 55.9579C68.7551 45.482 78.4712 42.6184 96 44.5563Z" fill="#F12300"/>
</svg>
