<svg width="214" height="104" viewBox="0 0 214 104" fill="none" xmlns="http://www.w3.org/2000/svg">
	<path d="M4.0922 35.5049H2V37.6325V66.2518V68.3795H4.0922H209.908H212V66.2518V37.6325V35.5049H209.908H4.0922Z" fill="#E20613" stroke="white" stroke-width="4"></path>
	<g class="sunset">
		<path class="back" d="M99.6176 87.2243L94.109 91.2662L91.9783 84.6689L91.3303 82.6624L89.3524 83.3066L82.8954 85.4096L82.8458 78.4493L82.8308 76.3537L80.7702 76.3371L73.9946 76.2823L76.055 69.6266L76.6716 67.6348L74.7248 66.9705L68.2754 64.77L72.2446 59.0931L73.4313 57.3959L71.7882 56.153L66.2991 52.0009L71.7875 47.8532L73.4319 46.6104L72.2446 44.9124L68.2754 39.2355L74.7248 37.035L76.6716 36.3709L76.055 34.3789L73.9951 27.7248L80.7691 27.674L82.8308 27.6585L82.8458 25.5618L82.8954 18.5921L89.3514 20.6986L91.3295 21.344L91.9782 19.337L94.109 12.7432L99.6183 16.7818L101.306 18.0188L102.531 16.3098L106.535 10.73L110.55 16.3071L111.778 18.0129L113.463 16.775L118.958 12.7386L121.097 19.3336L121.747 21.3379L123.723 20.6931L130.176 18.5877L130.218 25.5539L130.23 27.653L132.295 27.6685L139.081 27.7193L137.024 34.3745L136.409 36.3656L138.355 37.0295L144.804 39.23L140.835 44.9069L139.648 46.6044L141.291 47.8472L146.777 51.9953L141.291 56.1479L139.649 57.3909L140.835 59.0876L144.804 64.7645L138.355 66.965L136.409 67.6288L137.024 69.62L139.081 76.2768L132.293 76.3315L130.23 76.3482L130.218 78.4461L130.176 85.4085L123.722 83.3066L121.746 82.6631L121.097 84.6668L118.958 91.2652L113.464 87.2255L111.776 85.9847L110.549 87.6951L106.534 93.2864L102.534 87.6974L101.307 85.9847L99.6176 87.2243ZM106.532 2C79.5915 2 57.7852 24.3947 57.7852 52C57.7852 79.6111 79.5917 102 106.532 102C133.482 102 155.284 79.6111 155.284 52C155.284 24.3948 133.489 2 106.532 2Z" fill="#FF0613" stroke="white" stroke-width="4"></path>
		<path d="M74.457 51.9998C74.457 33.8268 88.8172 19.0879 106.53 19.0879C124.254 19.0879 138.608 33.8268 138.608 51.9998C138.608 70.1673 124.254 84.9117 106.53 84.9117C88.8172 84.9117 74.457 70.1728 74.457 51.9998Z" fill="white" stroke="white" stroke-width="4"></path>
		<path d="M100.833 88.9485L93.0049 94.6924L89.9816 85.3317L80.8202 88.3172L80.75 78.458L71.146 78.3805L74.0559 68.981L64.9322 65.8681L70.5359 57.8534L62.7891 51.9933L70.5359 46.1388L64.9322 38.1241L74.0559 35.0112L71.146 25.6117L80.75 25.5397L80.8202 15.6806L89.987 18.6715L93.0102 9.31644L100.838 15.0547L106.528 7.12305L112.235 15.0547L120.046 9.31644L123.081 18.6715L132.247 15.6806L132.306 25.5452L141.922 25.6173L139.017 35.0167L148.141 38.1296L142.537 46.1443L150.278 51.9989L142.537 57.859L148.141 65.8738L139.017 68.9865L141.922 78.386L132.306 78.4635L132.247 88.3227L123.081 85.3373L120.046 94.6979L112.235 88.9541L106.528 96.9024L100.833 88.9485ZM106.539 94.8419L111.98 87.2648L119.436 92.7372L122.329 83.8085L131.064 86.6555L131.135 77.2506L140.301 77.1785L137.527 68.2166L146.23 65.2478L140.896 57.5986L148.281 52.0044L140.896 46.4212L146.23 38.772L137.527 35.8088L140.301 26.8303L131.135 26.7694L131.064 17.3644L122.329 20.2114L119.436 11.2716L111.98 16.7551L106.539 9.17243L101.092 16.7496L93.6365 11.2661L90.7375 20.2059L81.9971 17.3589L81.9269 26.7639L72.7602 26.8248L75.535 35.8032L66.8325 38.7665L72.1717 46.4157L64.7865 51.9989L72.1717 57.5931L66.8325 65.2423L75.535 68.2111L72.7602 77.173L81.9269 77.2449L81.9971 86.6499L90.7375 83.803L93.6365 92.7316L101.092 87.2592L106.539 94.8419Z" fill="white"></path>
		<path d="M101.095 87.2665L93.6391 92.7389L90.74 83.8103L81.9998 86.6573L81.9296 77.2523L72.7627 77.1803L75.5376 68.2184L66.8351 65.2495L72.1743 57.6004L64.7891 52.0061L72.1743 46.4229L66.8351 38.7738L75.5376 35.8105L72.7627 26.8321L81.9296 26.7711L81.9998 17.3661L90.74 20.2131L93.6391 11.2734L101.095 16.7569L106.542 9.17969L111.984 16.7569L119.439 11.2734L122.333 20.2131L131.068 17.3661L131.138 26.7711L140.305 26.8321L137.529 35.8105L146.232 38.7738L140.898 46.4229L148.283 52.0061L140.898 57.6004L146.232 65.2495L137.529 68.2184L140.305 77.1803L131.138 77.2523L131.068 86.6573L122.333 83.8103L119.439 92.7389L111.984 87.2665L106.542 94.8437L101.095 87.2665ZM73.022 52.0006C73.022 71.0044 88.0191 86.3969 106.53 86.3969C125.054 86.3969 140.056 71.0044 140.056 52.0006C140.056 33.0023 125.054 17.6098 106.53 17.6098C88.0191 17.6098 73.022 33.0023 73.022 52.0006Z" fill="#FFEA00"></path>
	</g>
	<g class="sundisc">
		<path d="M73.0195 52.0001C73.0195 33.0018 88.0168 17.6094 106.528 17.6094C125.052 17.6094 140.054 33.0018 140.054 52.0001C140.054 71.0039 125.052 86.3964 106.528 86.3964C88.0168 86.3964 73.0195 71.0039 73.0195 52.0001ZM74.4555 52.0001C74.4555 70.1676 88.8157 84.912 106.528 84.912C124.252 84.912 138.607 70.1731 138.607 52.0001C138.607 33.8271 124.252 19.0882 106.528 19.0882C88.8157 19.0882 74.4555 33.8327 74.4555 52.0001Z" fill="white"></path>
		<path d="M74.4531 51.9998C74.4531 33.8268 88.8132 19.0879 106.526 19.0879C124.25 19.0879 138.605 33.8268 138.605 51.9998C138.605 70.1673 124.25 84.9117 106.526 84.9117C88.8132 84.9117 74.4531 70.1728 74.4531 51.9998ZM117.442 79.827C128.034 75.8446 135.602 65.4426 135.602 53.2017C135.602 52.0275 135.522 50.8699 135.382 49.7399C133.725 62.1802 127.014 72.9533 117.442 79.827ZM77.7246 50.7535C77.7246 51.9167 77.8163 53.0687 77.9567 54.2098C79.6142 41.775 86.3191 30.9909 95.8908 24.1116C85.2988 28.1051 77.7246 38.4961 77.7246 50.7535Z" fill="url(#paint0_radial_459_107)"></path>
	</g>
	<g class="naming">
		<path class="back" d="M4.08984 37.6318H209.905V66.2512H4.08984V37.6318Z" fill="#FF0000"></path>
		<path class="animate-faster letter letter-01" d="M20.7856 46.1452C20.2889 44.9322 19.641 44.0903 18.4858 43.4366C17.7786 43.049 17.3953 42.9215 16.2237 42.8828H9.92362H9.54033C9.32441 42.8939 9.11383 43.0269 9.10306 43.2539C9.07607 43.6306 9.4216 43.78 9.55654 43.8355C9.83721 43.9517 9.92362 44.0903 9.92362 44.2786V60.4022C9.91818 60.5849 9.83187 60.7179 9.55654 60.8287C9.42693 60.8841 9.0814 61.0392 9.10306 61.4103C9.11383 61.6319 9.32441 61.7703 9.54566 61.7814H14.7068C14.9227 61.7703 15.1333 61.6374 15.1494 61.4103C15.1764 61.0337 14.8255 60.8786 14.6959 60.8287C14.4315 60.7179 14.3396 60.5961 14.3288 60.4188V56.669C14.3288 55.8659 14.9821 55.2178 15.7919 55.2123C16.4668 55.2067 17.1739 55.1957 17.3521 55.1846C17.7408 55.1569 18.0754 55.0905 18.3617 54.9852C19.1714 54.6695 19.8301 54.0769 20.3483 53.1906C20.9961 52.1161 21.3147 50.7369 21.3147 49.0475C21.3147 47.9952 21.1419 47.0259 20.7856 46.1452ZM16.688 52.0773C16.688 53.5174 15.8405 54.2928 14.5286 54.2928C14.4152 54.2928 14.3235 54.1987 14.3235 54.0879V51.4348V44.1291C14.3235 44.0182 14.4152 43.9241 14.5286 43.9241C15.8405 43.9241 16.688 44.4226 16.688 45.8572V46.6381V52.0773Z" fill="white"></path>
		<path class="animate-faster letter letter-02" d="M23.488 60.9946C23.4827 60.9502 23.4827 60.9004 23.4827 60.8561C23.4827 60.1416 24.0711 59.5655 24.7892 59.5655C25.1238 59.5655 25.4261 59.6875 25.6583 59.8924C25.7284 59.9533 25.7932 60.0086 25.8634 60.0973C25.9336 60.1693 25.993 60.2524 26.0523 60.3299C26.1172 60.413 26.1819 60.4961 26.2467 60.5736C26.4735 60.8395 26.7002 60.9669 26.9162 60.9669C27.3265 60.9669 27.5316 60.7453 27.5316 60.3078C27.5316 60.1305 27.4938 59.909 27.4236 59.6431C27.3535 59.3828 27.2455 59.056 27.1051 58.6628C26.5328 57.0453 23.0885 45.0371 23.0777 44.9596C23.0777 44.9541 23.0777 44.9485 23.0724 44.9485C23.067 44.9264 23.0615 44.9042 23.0615 44.882C23.0562 44.8654 23.0507 44.8488 23.0507 44.8323C23.0507 44.8211 23.0507 44.8156 23.0454 44.81C23.04 44.799 23.04 44.7879 23.04 44.7768C22.8564 43.9626 22.6243 43.9349 22.3651 43.8242C22.2302 43.7687 21.8847 43.6136 21.9117 43.2426C21.9279 43.021 22.1384 42.8881 22.3544 42.877H22.5541H27.4344C27.6503 42.8881 27.8609 43.021 27.8771 43.2481C27.8987 43.6247 27.6233 43.7466 27.4937 43.8019C27.2833 43.8906 27.3156 44.0014 27.3427 44.1287V44.1343L27.4344 44.5276L27.4398 44.5442C27.456 44.6328 27.4884 44.7879 27.5478 45.0095V45.015C27.5532 45.0261 27.5532 45.0427 27.5586 45.0593C27.6071 45.2587 27.6773 45.5135 27.7583 45.8126C27.7961 45.9566 27.8339 46.095 27.8771 46.2391L29.108 51.1354C29.108 51.1354 29.2429 51.706 29.3401 51.9219C29.4211 52.1158 29.61 52.1988 29.907 52.1988C30.2255 52.1988 30.3442 51.8665 30.5439 51.2351C30.5439 51.2351 31.7479 47.7068 31.71 46.66C31.683 45.807 31.2944 45.4304 30.8679 45.1701C30.4792 44.9319 29.961 44.4279 29.961 43.8684C29.961 43.4585 30.0959 43.1706 30.3065 42.9434C30.5979 42.6333 31.2404 42.5779 31.4726 42.6C31.9638 42.6388 32.3579 42.8327 32.6819 43.1982C32.698 43.2149 32.7142 43.2315 32.7304 43.2536C32.7574 43.2868 32.7844 43.3201 32.8114 43.3533C33.1353 43.7964 33.2973 44.3227 33.2973 44.9375C33.2973 45.3584 33.2001 45.9178 33.0165 46.6158C32.8276 47.3081 32.6819 47.8509 32.5792 48.2386C32.0772 50.0997 31.7047 51.4567 31.4617 52.3042C30.9812 53.9768 30.6304 55.273 30.4198 56.2091C30.0635 57.7433 29.7612 58.8233 29.5128 59.4548C28.676 61.5485 27.375 62.5953 25.615 62.5953C24.9726 62.5953 24.476 62.4292 24.1089 62.1079C23.7958 61.8531 23.5204 61.3934 23.488 60.9946Z" fill="white"></path>
		<path class="animate-faster letter letter-03" d="M39.5825 59.1446C39.5825 61.4266 42.1793 60.8173 42.2278 59.848C42.2386 59.6653 42.2116 59.5102 42.1576 59.3274C42.1306 59.2498 42.0227 59.0116 42.0227 58.8289C42.0227 58.2806 42.4707 57.8374 43.0268 57.8374C43.0484 57.8374 43.07 57.8374 43.097 57.8374C43.1563 57.8429 43.2157 57.8485 43.2697 57.8652C43.707 57.9704 44.0201 58.3193 44.031 58.8178C44.031 58.9286 44.0363 59.8591 42.9998 60.7952C42.3034 61.4322 41.5152 61.7533 40.6245 61.7533C39.1128 61.7533 37.8334 60.9281 36.7807 59.283C35.5876 57.4109 34.875 55.1843 34.875 51.9773C34.875 50.8529 34.9667 49.795 35.1449 48.798C35.4257 47.2415 35.9007 45.9621 36.5593 44.9652C36.9696 44.3503 37.4555 43.8462 38.0115 43.442C38.573 43.0376 39.1236 42.8382 39.6527 42.8382C39.9928 42.8382 40.3114 42.8991 40.6137 43.021C40.916 43.1428 41.1265 43.2259 41.2399 43.2703C41.3533 43.3145 41.4828 43.3366 41.6286 43.3366C41.8445 43.3366 42.0119 43.237 42.1361 43.0321C42.2602 42.8326 42.4005 42.6332 42.8 42.6222H42.8109C43.097 42.6166 43.3454 42.8326 43.3939 43.1096C43.4371 43.3699 43.4911 43.6192 43.5505 43.8574C43.7124 44.4389 43.8258 44.8654 43.8959 45.1479C44.0363 45.6741 44.1119 46.1282 44.1119 46.516C44.1119 47.0256 44.0363 47.38 43.8959 47.5794C43.7772 47.7623 43.5666 47.8841 43.3291 47.8841C43.1725 47.8841 43.0268 47.8287 42.9081 47.74C42.8 47.657 42.7137 47.5352 42.6543 47.3745C42.5194 46.9924 42.3034 46.1006 41.8877 44.9263C41.6771 44.3392 41.1644 43.9127 40.5327 43.9127C40.2412 43.9127 39.5825 44.1343 39.5825 45.4082C39.5825 46.6988 39.5825 59.1446 39.5825 59.1446Z" fill="white"></path>
		<path class="animate-faster letter letter-04" d="M50.5122 59.1446C50.5122 61.4266 53.109 60.8173 53.1575 59.848C53.1684 59.6653 53.1414 59.5102 53.0873 59.3274C53.0603 59.2498 52.9524 59.0116 52.9524 58.8289C52.9524 58.2806 53.4005 57.8374 53.9565 57.8374C53.9782 57.8374 53.9997 57.8374 54.0267 57.8374C54.0861 57.8429 54.1454 57.8485 54.1995 57.8652C54.6421 57.9704 54.9499 58.3193 54.9607 58.8178C54.9607 58.9286 54.9661 59.8591 53.9295 60.7952C53.2331 61.4322 52.4449 61.7533 51.5541 61.7533C50.0425 61.7533 48.7577 60.9281 47.7104 59.283C46.5173 57.4109 45.8047 55.1843 45.8047 51.9773C45.8047 50.8529 45.8964 49.795 46.0746 48.798C46.3607 47.2415 46.8304 45.9621 47.489 44.9652C47.8993 44.3503 48.3798 43.8462 48.9412 43.442C49.5026 43.0376 50.048 42.8382 50.5824 42.8382C50.9225 42.8382 51.2411 42.8991 51.5434 43.021C51.8457 43.1428 52.0508 43.2259 52.1696 43.2703C52.283 43.3145 52.4126 43.3366 52.5583 43.3366C52.7742 43.3366 52.9416 43.237 53.0658 43.0321C53.1899 42.8326 53.3303 42.6332 53.7298 42.6222H53.7406C54.0267 42.6166 54.275 42.8326 54.329 43.1096C54.3722 43.3699 54.4262 43.6192 54.4856 43.8574C54.6421 44.4389 54.761 44.8654 54.8312 45.1479C54.9714 45.6741 55.0471 46.1282 55.0471 46.516C55.0471 47.0256 54.9714 47.38 54.8312 47.5794C54.7123 47.7623 54.5018 47.8841 54.2643 47.8841C54.1077 47.8841 53.962 47.8287 53.8486 47.74C53.7406 47.657 53.6489 47.5352 53.5949 47.3745C53.4598 46.9924 53.2439 46.1006 52.8282 44.9263C52.6177 44.3392 52.1048 43.9127 51.4732 43.9127C51.1816 43.9127 50.523 44.1343 50.523 45.4082C50.5122 46.6988 50.5122 59.1446 50.5122 59.1446Z" fill="white"></path>
		<path class="animate-faster letter letter-05" d="M70.2479 61.3996C70.2372 61.6211 70.0212 61.7596 69.8053 61.7707H64.7792C64.5633 61.7596 64.3527 61.6266 64.3365 61.3996C64.315 61.0284 64.6604 60.8734 64.79 60.818C65.0708 60.7017 65.1518 60.5687 65.1518 60.3749L65.1355 59.7213V59.7047C65.1139 58.5194 65.1733 57.0349 65.0221 55.2569C64.8548 53.191 64.6551 52.4377 64.4229 51.5958C64.3311 51.2801 63.8938 50.488 62.8519 50.488C62.4092 50.488 62.1825 50.6985 62.1825 51.125C62.1825 51.2468 62.1987 51.3632 62.2257 51.4684C62.2527 51.5736 62.2689 51.6623 62.2851 51.7343C62.3012 51.8063 62.3121 51.9447 62.3175 52.1442C62.3229 52.338 62.3337 52.5152 62.3444 52.6759C62.3444 52.6869 62.3444 52.6925 62.3444 52.7035V60.3749C62.3444 60.5687 62.4309 60.7017 62.7115 60.818C62.8466 60.8734 63.1867 61.0284 63.165 61.3996C63.1489 61.6211 62.9438 61.7596 62.7277 61.7707H62.3444H57.5614C57.3455 61.7596 57.1349 61.6266 57.1187 61.3996C57.0971 61.0284 57.4425 60.8734 57.5721 60.818C57.842 60.7017 57.9339 60.5743 57.9392 60.3915V44.2568C57.9339 44.0741 57.8475 43.9466 57.5721 43.8303C57.4425 43.7749 57.0917 43.6198 57.1187 43.2487C57.1349 43.0272 57.34 42.8943 57.5559 42.8777H62.717C62.9329 42.8887 63.1435 43.0216 63.1542 43.2487C63.1759 43.6253 62.8357 43.7749 62.7007 43.8303C62.4416 43.9356 62.3499 44.0575 62.3337 44.2292V48.2669C62.3337 49.1089 62.663 49.1587 62.8627 49.1476C63.0031 49.142 63.138 49.1033 63.2676 49.0479C63.3864 48.9981 63.5052 48.9316 63.6294 48.8596C64.1422 48.5439 64.5417 48.1229 64.8278 47.5912C65.0599 47.1702 65.9399 44.5116 66.1667 44.0796C66.7497 42.9995 67.4677 42.8057 68.2667 42.8057C68.6932 42.8057 69.0549 42.933 69.3572 43.1878C69.6595 43.4426 69.8539 43.8414 69.8539 44.3842C69.8539 44.8218 69.4651 45.7523 68.6284 45.7523C68.1533 45.7523 67.9752 45.647 67.6783 45.575C67.4191 45.5142 67.0035 45.4919 66.8091 45.9351C66.6687 46.2618 66.4906 46.7106 66.3448 47.1426C66.1558 47.6964 66.0587 47.9567 66.2584 48.4608C66.5715 49.264 67.9752 49.9231 68.5258 51.5016C69.0386 52.9639 69.2708 54.7142 69.2708 56.7469C69.2708 57.2344 69.3788 60.4469 69.3788 60.4469C69.4058 60.6019 69.5353 60.7073 69.7782 60.8069C69.9241 60.8679 70.2696 61.0229 70.2479 61.3996Z" fill="white"></path>
		<path class="animate-faster letter letter-06" d="M85.113 60.8176C84.8539 60.7069 84.7567 60.5905 84.7459 60.4188V45.5969V44.2288C84.7621 44.0626 84.8593 43.9407 85.113 43.8355C85.2426 43.78 85.588 43.625 85.5665 43.2539C85.5503 43.0324 85.3398 42.8994 85.1238 42.8828H84.7405H80.3407H79.9574C79.7414 42.8939 79.5309 43.0269 79.5201 43.2539C79.4985 43.6306 79.8386 43.78 79.9735 43.8355C80.2273 43.9407 80.319 44.0571 80.3407 44.2232V45.5082C80.3407 45.5193 80.3407 45.5304 80.3407 45.5359V45.6411C80.3407 45.7852 80.3137 45.9292 80.2543 46.0621L78.246 50.9529C78.2137 51.0305 78.165 51.1025 78.0948 51.1468C78.0085 51.2022 77.8951 51.2409 77.8195 51.0914V44.2786C77.8195 44.0847 77.9059 43.9517 78.1867 43.8355C78.3216 43.78 78.6672 43.625 78.6402 43.2539C78.6239 43.0324 78.4134 42.8994 78.2029 42.8828H77.8142H73.4305H73.4197H73.0364C72.8205 42.8939 72.6099 43.0269 72.5992 43.2539C72.5775 43.6306 72.9177 43.78 73.0526 43.8355C73.3118 43.9407 73.4035 44.0626 73.4197 44.2288V44.3063C73.4197 44.3119 73.4197 44.3119 73.4197 44.3174C73.4197 44.3229 73.4197 44.3285 73.4197 44.4725V60.5186C73.4197 60.5739 73.3333 60.7069 73.0526 60.8231C72.9177 60.8786 72.5722 61.0337 72.5992 61.4047C72.6154 61.6263 72.8258 61.7592 73.0364 61.7758H78.1975C78.4134 61.7592 78.6239 61.6319 78.6347 61.4047C78.6617 61.0281 78.3162 60.8786 78.1812 60.8231C77.9221 60.7124 77.8304 60.5961 77.8142 60.4244V56.1152C77.8142 56.0986 77.8142 56.0874 77.8142 56.0763C77.8195 55.9877 77.7979 55.8825 77.9006 55.6664C77.9491 55.5612 78.5807 53.9882 79.1799 52.4872C79.1799 52.4816 79.18 52.4816 79.1854 52.4761C79.3203 52.1438 79.4445 51.8225 79.5632 51.529C79.5632 51.5235 79.7306 51.0692 79.8116 50.8255C79.844 50.6815 79.9142 50.5209 80.0222 50.3492C80.0329 50.3381 80.0384 50.3326 80.0437 50.3214C80.0437 50.3214 80.1409 50.1996 80.1895 50.1609C80.1949 50.1554 80.2003 50.1497 80.2111 50.1442C80.2705 50.1165 80.3083 50.0999 80.3407 50.0999C80.346 50.0999 80.3515 50.0944 80.3569 50.0944C80.3622 50.0944 80.3677 50.0944 80.373 50.0944C80.3785 50.0944 80.3839 50.0944 80.3839 50.0889H80.3947C80.589 50.0889 80.6862 50.2218 80.6862 50.4876C80.6862 50.543 80.6753 50.6372 80.6538 50.7757C80.6268 50.9197 80.6106 51.0139 80.5998 51.0637C80.5188 51.3628 80.4594 51.8613 80.4162 52.5647C80.3677 53.2681 80.346 53.8331 80.346 54.2541V60.441C80.3407 60.5186 80.3137 60.5794 80.2705 60.6404C80.2111 60.7124 80.1193 60.7733 79.9844 60.8342C79.8494 60.8896 79.5039 61.0447 79.5255 61.4158C79.5417 61.6374 79.7523 61.7703 79.9627 61.787H85.1238C85.3398 61.7703 85.5503 61.6429 85.5665 61.4158C85.588 61.0226 85.2479 60.873 85.113 60.8176Z" fill="white"></path>
		<path class="animate-faster letter letter-07" d="M93.0388 41.8688C93.2493 41.9242 93.476 41.963 93.7189 41.9796C93.9619 41.9962 94.1779 42.0129 94.3722 42.0129C94.4747 42.0129 94.5774 42.0129 94.6745 42.0073C94.7717 42.0129 94.8742 42.0184 94.9714 42.0129C95.1712 42.0129 95.3871 42.0018 95.6247 41.9796C95.8676 41.963 96.089 41.9242 96.3049 41.8688C97.1417 41.675 97.741 41.4091 98.1188 41.0713C98.3834 40.8275 98.5183 40.5505 98.5129 40.2515C98.5129 39.9357 98.3779 39.6644 98.108 39.4372C97.768 39.1382 97.3036 38.9941 96.7152 38.9941C96.2347 38.9941 95.8622 39.1049 95.5977 39.3044C95.3332 39.5092 95.1982 39.7308 95.1982 39.9801C95.1982 40.2071 95.2954 40.3622 95.4789 40.4453C95.6679 40.5229 95.7597 40.617 95.7597 40.7167C95.7597 40.977 95.4033 41.11 94.6853 41.1155H94.6529C93.9349 41.11 93.5732 40.977 93.5786 40.7167C93.5786 40.6115 93.6758 40.5173 93.8593 40.4453C94.0482 40.3622 94.1401 40.2127 94.1401 39.9801C94.1401 39.7308 94.0105 39.5092 93.746 39.3044C93.4815 39.1049 93.1089 38.9997 92.6285 38.9941C92.04 38.9941 91.5758 39.1382 91.2356 39.4372C90.9711 39.6644 90.8361 39.9357 90.8361 40.2515C90.8308 40.5505 90.9657 40.8275 91.2303 41.0713C91.6028 41.4091 92.2074 41.675 93.0388 41.8688Z" fill="white"></path>
		<path class="animate-faster letter letter-07" d="M100.669 60.8176C100.409 60.7069 100.318 60.5905 100.302 60.4188V45.5969V44.2288C100.318 44.0626 100.409 43.9407 100.669 43.8355C100.798 43.78 101.149 43.625 101.122 43.2539C101.106 43.0324 100.895 42.8994 100.679 42.8828H100.302H95.9017H95.5184C95.3025 42.8939 95.0919 43.0269 95.0812 43.2539C95.0542 43.6306 95.3997 43.78 95.5347 43.8355C95.7883 43.9407 95.8802 44.0571 95.9017 44.2232V45.5082C95.9017 45.5193 95.8963 45.5304 95.8963 45.5359V45.6411C95.8963 45.7852 95.8693 45.9292 95.8153 46.0621L93.8071 50.9529C93.7747 51.0305 93.7262 51.1025 93.656 51.1468C93.5696 51.2022 93.4562 51.2409 93.3806 51.0914H93.3752V44.2786C93.3752 44.0847 93.4616 43.9517 93.7423 43.8355C93.8773 43.78 94.2227 43.625 94.1958 43.2539C94.1795 43.0324 93.9744 42.8994 93.753 42.8828H93.3644H88.9808H88.97H88.5867C88.3761 42.8939 88.1602 43.0269 88.1494 43.2539C88.1279 43.6306 88.4679 43.78 88.6029 43.8355C88.8566 43.9407 88.9538 44.0626 88.97 44.2288V44.3063C88.97 44.3119 88.97 44.3119 88.97 44.3174C88.97 44.3229 88.97 44.3285 88.9754 44.4725V60.5186C88.97 60.5739 88.8836 60.7069 88.6029 60.8231C88.4679 60.8786 88.1279 61.0337 88.1494 61.4047C88.1656 61.6263 88.3761 61.7592 88.5867 61.7758H93.753C93.9691 61.7592 94.1795 61.6319 94.1904 61.4047C94.2174 61.0281 93.8719 60.8786 93.7369 60.8231C93.4778 60.7124 93.386 60.5961 93.3698 60.4244V56.1152C93.3698 56.0986 93.3698 56.0874 93.3698 56.0763C93.3752 55.9877 93.3536 55.8825 93.4562 55.6664C93.5048 55.5612 94.1364 53.9882 94.7302 52.4872C94.7302 52.4816 94.7356 52.4816 94.7356 52.4761C94.8706 52.1438 95.0002 51.8225 95.1135 51.529C95.1189 51.5235 95.2809 51.0692 95.3618 50.8255C95.3943 50.6815 95.4698 50.5209 95.5779 50.3492C95.5832 50.3381 95.594 50.3326 95.5994 50.3214C95.5994 50.3214 95.6911 50.1996 95.7451 50.1609C95.7506 50.1554 95.756 50.1497 95.7613 50.1442C95.8208 50.1165 95.8585 50.0999 95.891 50.0999H95.8963C95.9017 50.0999 95.9072 50.0944 95.9072 50.0944C95.9179 50.0944 95.9179 50.0944 95.9233 50.0944C95.9287 50.0944 95.9287 50.0944 95.9342 50.0889H95.9449C96.1393 50.0889 96.2365 50.2218 96.2365 50.4876C96.2365 50.543 96.2256 50.6372 96.1986 50.7757C96.1771 50.9197 96.1554 51.0139 96.1446 51.0637C96.0637 51.3628 96.0043 51.8613 95.9612 52.5647C95.9125 53.2681 95.891 53.8331 95.891 54.2541V60.441C95.8802 60.5186 95.8585 60.5794 95.8153 60.6404C95.756 60.7124 95.6642 60.7733 95.5238 60.8342C95.3888 60.8896 95.0487 61.0447 95.0704 61.4158C95.0865 61.6374 95.2971 61.7703 95.513 61.787H100.674C100.89 61.7703 101.101 61.6429 101.117 61.4158C101.144 61.0226 100.798 60.873 100.669 60.8176Z" fill="white"></path>
		<path class="animate-faster letter letter-08" d="M122.23 60.8176C121.97 60.7069 121.879 60.5905 121.863 60.4188V44.201C121.885 44.0515 121.987 43.9352 122.23 43.8355C122.36 43.78 122.705 43.625 122.684 43.2539C122.667 43.0324 122.457 42.8994 122.241 42.8828H121.857H120.151H113.695H111.076H110.694C110.477 42.8939 110.267 43.0269 110.251 43.2539C110.229 43.6306 110.569 43.78 110.704 43.8355C110.963 43.9462 111.055 44.0681 111.071 44.2343V55.1957V60.3911C111.066 60.5739 110.974 60.7069 110.704 60.8176C110.574 60.873 110.229 61.0281 110.251 61.3992C110.267 61.6208 110.477 61.7537 110.694 61.7703H111.076H115.249H115.633C115.849 61.7537 116.06 61.6208 116.076 61.3992C116.098 61.0281 115.751 60.873 115.623 60.8176C115.353 60.7069 115.261 60.5739 115.256 60.3911V45.9679V44.6387C115.256 44.2454 115.568 43.9241 115.951 43.9241H116.923C117.307 43.9241 117.614 44.2454 117.614 44.6387V45.9679V50.532V60.3911C117.609 60.5739 117.522 60.7069 117.247 60.8176C117.112 60.873 116.772 61.0281 116.793 61.3992C116.805 61.6208 117.02 61.7537 117.237 61.7703H117.62H121.863H122.247C122.462 61.7592 122.672 61.6263 122.689 61.3992C122.71 61.0226 122.365 60.873 122.23 60.8176Z" fill="white"></path>
		<path class="animate-faster letter letter-09" d="M136.911 46.1452C136.414 44.9322 135.766 44.0903 134.605 43.4366C133.898 43.049 133.515 42.9215 132.344 42.8828H126.049H125.665C125.45 42.8939 125.24 43.0269 125.228 43.2539C125.201 43.6306 125.552 43.78 125.682 43.8355C125.962 43.9517 126.049 44.0903 126.049 44.2786V60.4022C126.044 60.5849 125.952 60.7179 125.682 60.8287C125.552 60.8841 125.207 61.0392 125.228 61.4103C125.24 61.6319 125.45 61.7703 125.665 61.7814H130.827C131.042 61.7703 131.254 61.6374 131.269 61.4103C131.291 61.0337 130.945 60.8786 130.816 60.8287C130.552 60.7179 130.46 60.5961 130.449 60.4188V56.669C130.449 55.8659 131.102 55.2178 131.912 55.2123C132.592 55.2067 133.293 55.1957 133.478 55.1846C133.866 55.1569 134.2 55.0905 134.487 54.9852C135.292 54.6695 135.955 54.0769 136.474 53.1906C137.121 52.1161 137.445 50.7369 137.445 49.0475C137.445 47.9952 137.268 47.0259 136.911 46.1452ZM132.819 52.0773C132.819 53.5174 131.976 54.2928 130.659 54.2928C130.546 54.2928 130.454 54.1987 130.454 54.0879V51.4348V44.1291C130.454 44.0182 130.546 43.9241 130.659 43.9241C131.971 43.9241 132.819 44.4226 132.819 45.8572V46.6381V52.0773Z" fill="white"></path>
		<path class="animate-faster letter letter-10" d="M150.635 48.6044C150.294 46.8985 149.674 45.5525 148.767 44.5666C148.232 43.9906 147.633 43.5586 146.963 43.2872C146.898 43.2594 146.828 43.2373 146.763 43.2152C146.666 43.1763 146.564 43.1431 146.461 43.1155C145.938 42.9604 145.376 42.8828 144.787 42.8828C144.259 42.8828 143.762 42.9604 143.298 43.1155C142.245 43.4644 141.354 44.201 140.626 45.3365C139.578 46.9705 139.055 49.1583 139.055 51.9056C139.055 54.5809 139.454 56.7465 140.254 58.3972C140.896 59.6988 141.765 60.657 142.871 61.2774C143.638 61.6983 144.459 61.9088 145.328 61.9088C146.288 61.9088 147.212 61.6041 148.102 60.9893C149.226 60.1973 150.003 58.9843 150.451 57.3447C150.786 56.0986 150.958 54.3981 150.958 52.2545C150.953 50.8588 150.845 49.6402 150.635 48.6044ZM146.543 59.8261C146.543 60.0976 146.435 60.3413 146.229 60.5407C146.024 60.7511 145.727 60.8564 145.349 60.8564C144.852 60.8564 144.464 60.6514 144.199 60.2582C143.951 59.8815 143.832 59.2391 143.832 58.2919V51.9111V47.2807C143.832 46.6381 143.827 46.2282 143.805 46.0621C143.789 45.907 143.762 45.763 143.719 45.63C143.682 45.5027 143.61 45.3143 143.497 45.0374L143.482 44.9987V44.9543C143.482 44.6829 143.59 44.4392 143.795 44.2343C144.005 44.0238 144.297 43.9186 144.674 43.9186C145.171 43.9186 145.559 44.1179 145.819 44.5167C146.068 44.8935 146.186 45.5359 146.186 46.483V52.2435V57.4998C146.186 58.1424 146.191 58.5522 146.213 58.7183C146.229 58.8734 146.256 59.0175 146.294 59.1505C146.338 59.2778 146.408 59.4661 146.515 59.7431L146.531 59.7819V59.8261H146.543Z" fill="white"></path>
		<path class="animate-faster letter letter-11" d="M164.412 61.2386C164.412 61.233 164.412 61.2275 164.406 61.2164C164.39 61.1334 164.352 61.0558 164.298 60.9893C164.195 60.8563 164.033 60.7732 163.85 60.7732C163.79 60.7732 163.737 60.7843 163.682 60.7955C163.655 60.801 163.542 60.8342 163.477 60.8397C163.288 60.8508 162.965 60.8231 162.91 60.4742C162.91 60.4576 162.862 59.8981 162.835 59.6877C162.656 57.9706 162.543 56.8352 162.209 54.3149C161.879 51.7948 161.518 49.2857 161.129 46.7932C160.843 44.9322 160.779 43.4643 160.67 43.1376C160.67 43.1321 160.665 43.1321 160.665 43.1264C160.665 43.1209 160.665 43.1154 160.659 43.1154C160.622 42.9991 160.509 42.9105 160.374 42.9049C160.357 42.9049 160.341 42.8994 160.325 42.8994H155.919C155.892 42.8994 155.86 42.8994 155.833 42.9049C155.525 42.9547 155.25 43.1542 155.202 43.4643C155.196 43.4865 155.196 43.5087 155.19 43.5253C155.147 44.1623 155.742 44.4226 155.968 44.5168C156.2 44.6109 156.324 44.8546 156.281 45.0928C156.227 45.3587 156.167 45.6743 156.109 45.8682C155.984 46.2781 155.86 46.7046 155.736 47.1422C155.207 48.8647 154.758 50.4876 154.403 52.0163C153.798 54.5808 153.511 56.2757 153.231 58.7018C153.204 59.0008 153.026 59.804 152.891 60.2194C152.859 60.297 152.799 60.4687 152.794 60.4963C152.756 60.6015 152.681 60.6846 152.589 60.7401C152.524 60.7898 152.443 60.8121 152.324 60.8121C152.324 60.8121 151.839 60.8065 151.735 60.8176C151.379 60.8619 151.104 61.1001 151.109 61.5155C151.109 61.6706 151.336 62.4128 151.39 63.3433C151.417 63.7809 151.487 64.0799 151.627 64.2351C151.774 64.3902 151.941 64.4677 152.135 64.4677C152.669 64.4677 152.934 64.152 152.934 63.5206V62.7063C152.934 62.4571 152.929 62.1192 152.929 62.1081C152.929 61.9143 153.086 61.7537 153.285 61.7537H154.17H157.177C157.318 61.7592 157.436 61.7537 157.576 61.7537H161.788C161.793 61.7537 161.804 61.7537 161.809 61.7537C161.831 61.7537 161.853 61.7537 161.874 61.7537C162.138 61.7537 162.355 61.9641 162.355 62.2244C162.355 62.3075 162.301 62.7452 162.241 63.0497C162.203 63.2436 162.176 63.3489 162.176 63.3655C162.123 63.6812 162.144 63.9803 162.323 64.1908C162.5 64.4012 162.711 64.4732 162.873 64.4732C163.208 64.4732 163.472 64.2516 163.661 63.8086C163.667 63.792 163.672 63.7754 163.682 63.7587C163.785 63.3987 163.888 63.0719 163.98 62.7673C164.077 62.4626 164.174 62.1746 164.271 61.9088C164.33 61.7537 164.368 61.6152 164.39 61.4989C164.406 61.4158 164.417 61.3438 164.417 61.2773C164.417 61.2773 164.417 61.2552 164.412 61.2386ZM157.998 60.5462C157.739 60.729 157.258 60.7235 156.508 60.7235C155.585 60.7235 154.985 60.729 154.765 60.5351C154.538 60.3412 154.43 59.9258 154.43 59.2944C154.43 58.3639 154.548 57.2451 154.78 55.9434C154.958 54.9741 155.217 53.7501 155.552 52.2711C155.839 51.0747 156.097 50.2605 156.341 49.8285C156.578 49.3964 156.854 49.1805 157.156 49.1805C157.388 49.1805 157.528 49.2912 157.582 49.5073C157.636 49.7177 157.658 49.9891 157.663 50.3048C157.663 50.3214 157.663 50.3492 157.663 50.3658L157.614 51.3019V51.324C157.614 51.9388 157.679 52.9413 157.814 54.3315C157.949 55.7329 158.095 56.9958 158.251 58.1202C158.343 58.7018 158.386 59.1504 158.386 59.4661C158.386 60.0033 158.251 60.3578 157.998 60.5462Z" fill="white"></path>
		<path class="animate-faster letter letter-12" d="M165.996 60.9947C165.99 60.9505 165.984 60.9006 165.984 60.8562C165.984 60.1417 166.573 59.5657 167.291 59.5657C167.62 59.5657 167.928 59.6876 168.16 59.8925C168.23 59.9534 168.295 60.0087 168.365 60.0975C168.435 60.1694 168.495 60.2525 168.554 60.33C168.619 60.4131 168.684 60.4962 168.749 60.5738C168.975 60.8396 169.202 60.967 169.418 60.967C169.829 60.967 170.034 60.751 170.034 60.3134C170.034 60.1362 169.996 59.9146 169.926 59.6488C169.856 59.3884 169.747 59.0616 169.602 58.6684C169.035 57.0511 165.591 45.0373 165.574 44.9652C165.569 44.9597 165.569 44.9542 165.569 44.9542C165.564 44.932 165.558 44.9099 165.558 44.8822C165.552 44.8656 165.553 44.849 165.547 44.8379C165.547 44.8268 165.547 44.8212 165.542 44.8157C165.542 44.8046 165.536 44.7935 165.536 44.7825C165.353 43.9682 165.121 43.9406 164.862 43.8298C164.727 43.7744 164.382 43.6193 164.408 43.2482C164.419 43.0266 164.635 42.8937 164.851 42.8827H165.051H169.931C170.147 42.8937 170.358 43.0266 170.374 43.2538C170.396 43.6303 170.126 43.7523 169.991 43.8077C169.779 43.8963 169.812 44.007 169.834 44.1344V44.1399L169.92 44.5332L169.926 44.5498C169.942 44.6384 169.979 44.7935 170.034 45.0151V45.0207C170.039 45.0317 170.039 45.0483 170.044 45.0649C170.098 45.2644 170.163 45.5136 170.244 45.8182C170.281 45.9567 170.319 46.1008 170.358 46.2447L171.588 51.1411C171.588 51.1411 171.723 51.7116 171.82 51.9276C171.901 52.1215 172.02 52.199 172.312 52.199C172.63 52.199 172.792 51.911 172.992 51.2741C172.992 51.2741 174.169 47.6959 174.131 46.6435C174.104 45.7906 173.721 45.4139 173.284 45.1535C172.895 44.9155 172.435 44.428 172.435 43.863C172.435 43.4531 172.57 43.1651 172.782 42.938C173.072 42.6279 173.715 42.578 173.947 42.5946C174.439 42.6334 174.833 42.8273 175.162 43.1928C175.178 43.2094 175.194 43.2316 175.205 43.2482C175.233 43.2814 175.259 43.3147 175.286 43.3479C175.605 43.7855 175.766 44.3173 175.766 44.932C175.766 45.353 175.67 45.9124 175.486 46.6103C175.298 47.3027 175.151 47.8455 175.049 48.2332C174.546 50.0943 174.174 51.4513 173.926 52.2988C173.445 53.9714 173.094 55.2676 172.884 56.2036C172.527 57.7379 172.225 58.8179 171.977 59.4494C171.135 61.5431 169.839 62.5899 168.074 62.5899C167.431 62.5899 166.935 62.4238 166.568 62.1025C166.303 61.8532 166.033 61.3935 165.996 60.9947Z" fill="white"></path>
		<path class="animate-faster letter letter-13" d="M191.071 61.438C191.061 61.6595 190.844 61.798 190.634 61.8091H185.608C185.392 61.798 185.182 61.6595 185.165 61.438C185.144 61.0668 185.489 60.9117 185.624 60.8564C185.905 60.74 185.98 60.6072 185.986 60.4133L185.97 59.7597V59.7431C185.948 58.5578 186.002 57.0733 185.857 55.2898C185.689 53.2239 185.489 52.4761 185.257 51.6287C185.165 51.3129 184.728 50.5209 183.686 50.5209C183.238 50.5209 183.022 50.7314 183.022 51.1579C183.022 51.2797 183.033 51.396 183.066 51.5013C183.087 51.6065 183.108 51.6951 183.124 51.7672C183.136 51.8392 183.146 51.9776 183.157 52.1771C183.163 52.3764 183.173 52.5481 183.184 52.7032C183.184 52.7143 183.184 52.7198 183.184 52.7309V60.4022C183.189 60.5961 183.271 60.729 183.551 60.8454C183.686 60.9007 184.026 61.0558 184.005 61.4268C183.988 61.6484 183.778 61.787 183.561 61.798H183.179H178.401C178.184 61.787 177.974 61.6484 177.959 61.4268C177.937 61.0558 178.277 60.9007 178.412 60.8454C178.687 60.7345 178.773 60.6016 178.779 60.4189V44.2952C178.773 44.1124 178.687 43.985 178.412 43.8688C178.277 43.8133 177.931 43.6582 177.959 43.2872C177.974 43.0656 178.184 42.9327 178.401 42.916H183.561C183.778 42.9272 183.983 43.06 183.999 43.2872C184.021 43.6638 183.681 43.8133 183.546 43.8688C183.286 43.974 183.195 44.1013 183.179 44.2675V48.3054C183.179 49.1473 183.508 49.1971 183.713 49.186C183.853 49.1805 183.988 49.1417 184.118 49.0863C184.237 49.0365 184.355 48.9756 184.48 48.898C184.993 48.5823 185.392 48.1558 185.672 47.6296C185.905 47.2087 186.784 44.55 187.011 44.1235C187.594 43.0434 188.313 42.8496 189.112 42.8496C189.538 42.8496 189.9 42.9769 190.202 43.2317C190.504 43.4865 190.699 43.8854 190.699 44.4281C190.699 44.8712 190.31 45.7962 189.468 45.7962C188.993 45.7962 188.815 45.691 188.523 45.619C188.264 45.5581 187.843 45.5359 187.654 45.979C187.514 46.3058 187.336 46.7545 187.189 47.1921C187.001 47.7514 186.904 48.0062 187.104 48.5102C187.416 49.3134 188.82 49.9726 189.37 51.5511C189.884 53.0078 190.122 54.7637 190.122 56.7964C190.122 57.2839 190.229 60.4964 190.229 60.4964C190.256 60.6459 190.38 60.7567 190.629 60.8564C190.747 60.9117 191.099 61.0668 191.071 61.438Z" fill="white"></path>
		<path class="animate-faster letter letter-14" d="M204.902 45.3268C204.864 45.0609 204.685 44.0362 204.583 43.3938C204.53 43.0946 204.27 42.8787 203.963 42.8787H202.094H201.214L198.553 42.873L195.892 42.8787H195.011H193.144C192.836 42.8787 192.577 43.0946 192.522 43.3938C192.415 44.0362 192.237 45.0609 192.204 45.3268C192.199 45.3601 192.199 45.4043 192.199 45.4432C192.199 45.997 192.663 46.4457 193.224 46.429C193.614 46.4179 193.948 46.1797 194.104 45.853C194.364 45.3656 194.024 44.9557 194.364 44.3354C194.488 44.1083 194.731 43.92 195.011 43.92H195.892C196.297 43.92 196.625 44.2744 196.625 44.6733C196.625 44.6788 196.625 44.6843 196.625 44.6843C196.625 45.2326 196.355 45.9028 196.355 46.9885V60.387C196.35 60.5697 196.258 60.6972 195.983 60.8135C195.848 60.8689 195.508 61.0239 195.53 61.3951C195.546 61.6166 195.756 61.7495 195.972 61.7661H198.553H201.134C201.349 61.7495 201.56 61.6166 201.576 61.3951C201.604 61.0184 201.257 60.8689 201.122 60.8135C200.853 60.6972 200.76 60.5697 200.755 60.387V46.9885C200.755 45.8973 200.485 45.2326 200.485 44.6843V44.6733C200.485 44.2744 200.815 43.92 201.22 43.92H202.099C202.381 43.92 202.624 44.1083 202.748 44.3354C203.088 44.9557 202.753 45.3656 203.006 45.853C203.163 46.1854 203.503 46.4235 203.886 46.429C204.453 46.4457 204.918 45.997 204.918 45.4432C204.907 45.4043 204.902 45.3656 204.902 45.3268Z" fill="white"></path>
	</g>
	<!--
	<g class="naming">
	    <path class="back" d="M4.08984 37.6318H209.905V66.2512H4.08984V37.6318Z" fill="#FF0000"/>
	    <path class="animate-faster letter letter-13" d="M202.538 44.487C202.501 44.2175 202.324 43.1789 202.223 42.5278C202.17 42.2246 201.914 42.0057 201.61 42.0057H199.766H198.898L196.271 42L193.645 42.0057H192.775H190.932C190.629 42.0057 190.373 42.2246 190.319 42.5278C190.213 43.1789 190.037 44.2175 190.005 44.487C190 44.5207 190 44.5656 190 44.6049C190 45.1662 190.457 45.621 191.012 45.6041C191.396 45.5929 191.726 45.3515 191.88 45.0204C192.136 44.5263 191.801 44.1109 192.136 43.4821C192.259 43.2519 192.499 43.0611 192.775 43.0611H193.645C194.044 43.0611 194.369 43.4204 194.369 43.8246C194.369 43.8302 194.369 43.8358 194.369 43.8358C194.369 44.3915 194.102 45.0708 194.102 46.1712V59.7511C194.097 59.9364 194.006 60.0655 193.735 60.1834C193.601 60.2396 193.266 60.3967 193.287 60.7728C193.303 60.9973 193.511 61.1321 193.724 61.1489H196.271H198.819C199.031 61.1321 199.239 60.9973 199.255 60.7728C199.282 60.391 198.94 60.2396 198.807 60.1834C198.541 60.0655 198.45 59.9364 198.445 59.7511V46.1712C198.445 45.0652 198.178 44.3915 198.178 43.8358V43.8246C198.178 43.4204 198.504 43.0611 198.903 43.0611H199.772C200.049 43.0611 200.289 43.2519 200.412 43.4821C200.747 44.1109 200.417 44.5263 200.667 45.0204C200.822 45.3572 201.157 45.5985 201.535 45.6041C202.095 45.621 202.553 45.1662 202.553 44.6049C202.543 44.5656 202.538 44.5263 202.538 44.487Z" fill="white"/>
        <path class="animate-faster letter letter-12" d="M183.798 58.5378C183.798 60.8219 186.445 60.212 186.494 59.2419C186.505 59.0589 186.478 58.9037 186.423 58.7207C186.395 58.6431 186.285 58.4047 186.285 58.2218C186.285 57.673 186.742 57.2294 187.309 57.2294C187.331 57.2294 187.353 57.2294 187.38 57.2294C187.441 57.2349 187.501 57.2404 187.556 57.2572C188.002 57.3625 188.321 57.7117 188.332 58.2107C188.332 58.3215 188.338 59.2529 187.281 60.1899C186.572 60.8275 185.768 61.1489 184.86 61.1489C183.319 61.1489 182.015 60.323 180.942 58.6763C179.726 56.8025 179 54.5738 179 51.3638C179 50.2384 179.094 49.1796 179.275 48.1817C179.561 46.6237 180.045 45.3431 180.717 44.3452C181.135 43.7298 181.63 43.2253 182.197 42.8207C182.769 42.4159 183.33 42.2164 183.87 42.2164C184.216 42.2164 184.541 42.2773 184.849 42.3993C185.157 42.5212 185.372 42.6044 185.487 42.6488C185.603 42.6931 185.735 42.7152 185.884 42.7152C186.104 42.7152 186.274 42.6155 186.401 42.4104C186.528 42.2107 186.67 42.0112 187.078 42.0001H187.089C187.38 41.9946 187.634 42.2107 187.683 42.488C187.727 42.7486 187.782 42.998 187.843 43.2365C188.008 43.8185 188.123 44.2454 188.195 44.5282C188.338 45.0548 188.415 45.5094 188.415 45.8975C188.415 46.4076 188.338 46.7624 188.195 46.9619C188.074 47.145 187.859 47.2669 187.617 47.2669C187.457 47.2669 187.309 47.2114 187.188 47.1227C187.078 47.0395 186.99 46.9176 186.929 46.7568C186.792 46.3744 186.572 45.4817 186.148 44.3064C185.933 43.7187 185.411 43.2918 184.767 43.2918C184.47 43.2918 183.798 43.5136 183.798 44.7887C183.798 46.0805 183.798 58.5378 183.798 58.5378Z" fill="white"/>
        <path class="animate-faster letter letter-11" d="M164.819 43.3959C164.803 43.2268 164.702 43.1015 164.454 42.995C164.322 42.9386 163.981 42.7799 164.001 42.403C164.017 42.1775 164.229 42.0418 164.442 42.0251H167.545C167.669 41.9916 167.805 41.9916 167.929 42.0251H169.577C169.793 42.0365 169.998 42.1723 170.01 42.403C170.022 42.6452 169.894 42.7956 169.761 42.8874C169.685 42.9407 169.609 42.9741 169.561 42.995C169.308 43.1015 169.216 43.2205 169.196 43.3896L169.2 55.4599C169.2 56.4085 169.486 59.9003 170.792 59.9003C172.113 59.9003 172.399 56.4176 172.399 55.4599L172.403 43.3896C172.395 43.3124 172.371 43.2456 172.323 43.185C172.263 43.114 172.175 43.0524 172.038 42.995C171.906 42.9386 171.569 42.7862 171.589 42.403C171.601 42.1723 171.806 42.0365 172.022 42.0251H173.67C173.794 41.9916 173.93 41.9916 174.055 42.0251H177.157C177.37 42.0418 177.582 42.1775 177.598 42.403C177.618 42.7799 177.278 42.9386 177.145 42.995C177.009 43.0545 176.917 43.1192 176.861 43.1944C176.813 43.2549 176.789 43.3207 176.781 43.3959L176.777 55.4599C176.777 57.452 176.127 58.9324 175.269 59.9003C174.267 61.0216 172.602 61.1506 170.792 61.1489C168.987 61.1473 167.328 61.0174 166.33 59.9003C165.472 58.9324 164.823 57.452 164.823 55.4599L164.819 43.3959Z" fill="white"/>
        <path class="animate-faster letter letter-10" d="M151.76 59.964C151.702 60.0397 151.607 60.1039 151.462 60.1671C151.325 60.2239 150.98 60.3754 151.001 60.7732C151.017 61.0037 151.233 61.1321 151.449 61.1489H156.691C162.32 60.7292 162.506 56.2632 162.506 51.5208C162.506 48.3924 162.697 42 158.198 42H151.449C151.233 42.0168 151.017 42.1515 151.001 42.3757C150.988 42.6051 151.113 42.7535 151.242 42.8461C151.325 42.9061 151.412 42.9429 151.462 42.965C151.719 43.0713 151.819 43.1955 151.835 43.3639V59.763C151.831 59.8398 151.806 59.905 151.76 59.964ZM156.305 59.5146L156.309 43.5828H156.936C157.845 43.5828 158.072 46.3956 158.115 47.0472C158.181 48.4658 158.214 49.957 158.214 51.5208C158.214 53.5403 158.185 54.941 158.131 55.7229C158.09 56.4301 158.015 57.0426 157.903 57.5614C157.778 58.133 157.598 59.5146 156.936 59.5146H156.305Z" fill="white"/>
        <path class="animate-faster letter letter-09" d="M149.212 47.7586C148.853 46.0416 148.198 44.6869 147.242 43.6947C146.678 43.1149 146.046 42.6801 145.34 42.407C145.272 42.379 145.198 42.3568 145.129 42.3345C145.027 42.2954 144.919 42.262 144.811 42.2342C144.259 42.0781 143.667 42 143.045 42C142.488 42 141.964 42.0781 141.475 42.2342C140.365 42.5854 139.425 43.3267 138.657 44.4696C137.552 46.1141 137 48.3161 137 51.0811C137 53.7737 137.421 55.9533 138.264 57.6146C138.942 58.9247 139.858 59.889 141.024 60.5135C141.833 60.9372 142.699 61.1489 143.616 61.1489C144.629 61.1489 145.603 60.8423 146.541 60.2235C147.726 59.4264 148.546 58.2056 149.018 56.5554C149.371 55.3012 149.553 53.5898 149.553 51.4323C149.548 50.0275 149.434 48.801 149.212 47.7586ZM144.897 59.0528C144.897 59.3261 144.783 59.5714 144.566 59.772C144.349 59.9838 144.036 60.0898 143.638 60.0898C143.114 60.0898 142.705 59.8835 142.425 59.4877C142.164 59.1086 142.038 58.462 142.038 57.5086V51.0867V46.4263C142.038 45.7796 142.033 45.367 142.01 45.1998C141.993 45.0437 141.964 44.8988 141.919 44.765C141.879 44.6368 141.804 44.4472 141.685 44.1685L141.669 44.1295V44.0849C141.669 43.8117 141.782 43.5664 141.999 43.3602C142.22 43.1483 142.528 43.0424 142.926 43.0424C143.45 43.0424 143.86 43.2431 144.133 43.6445C144.396 44.0236 144.52 44.6702 144.52 45.6235V51.4211V56.7115C144.52 57.3582 144.526 57.7706 144.549 57.9379C144.566 58.094 144.594 58.239 144.634 58.3728C144.68 58.501 144.754 58.6905 144.868 58.9693L144.884 59.0083V59.0528H144.897Z" fill="white"/>
        <path class="animate-faster letter letter-08" d="M134.564 45.3056C134.03 44.0765 133.333 43.2234 132.091 42.5612C131.33 42.1684 130.918 42.0392 129.659 42H122.884H122.472C122.24 42.0112 122.013 42.146 122.002 42.376C121.973 42.7577 122.344 42.9091 122.489 42.9653C122.791 43.0831 122.884 43.2234 122.884 43.4142V59.7514C122.878 59.9366 122.785 60.0713 122.489 60.1835C122.35 60.2397 121.978 60.3969 122.002 60.7729C122.013 60.9974 122.24 61.1376 122.478 61.1489H128.027C128.26 61.1376 128.486 61.003 128.503 60.7729C128.532 60.3913 128.155 60.2341 128.016 60.1835C127.731 60.0713 127.633 59.9479 127.621 59.7682V55.9688C127.621 55.155 128.441 54.4017 129.312 54.3961C130.037 54.3905 130.238 55.0175 130.238 55.474C130.238 56.013 130.238 59.5237 130.238 60.0802C130.238 60.3246 129.646 60.524 129.646 60.7729C129.646 60.9775 129.803 61.1489 130.079 61.1489C131.426 61.1489 134.108 61.1489 135.248 61.1489C135.465 61.1489 135.599 61.0229 135.599 60.7729C135.599 60.5229 135.133 60.3894 135.133 60.0802C135.133 57.7947 135.133 56.5519 135.133 55.474C135.133 54.3961 134.936 52.2402 133.249 52.2402C134.936 51.7013 135.133 49.9581 135.133 48.2463C135.133 47.1801 134.947 46.198 134.564 45.3056ZM130.158 51.3163C130.158 52.7754 129.246 53.5611 127.836 53.5611C127.714 53.5611 127.615 53.4657 127.615 53.3535V50.6653V43.2628C127.615 43.1505 127.714 43.0551 127.836 43.0551C129.246 43.0551 130.158 43.5602 130.158 45.0138V45.8051V51.3163Z" fill="white"/>
        <path class="animate-faster letter letter-07" d="M119.482 45.3056C118.971 44.0765 118.306 43.2234 117.118 42.5612C116.391 42.1684 115.997 42.0392 114.793 42H108.318H107.924C107.702 42.0112 107.485 42.146 107.474 42.376C107.446 42.7577 107.802 42.9091 107.94 42.9653C108.229 43.0831 108.318 43.2234 108.318 43.4142V59.7514C108.312 59.9366 108.223 60.0713 107.94 60.1835C107.807 60.2397 107.452 60.3969 107.474 60.7729C107.485 60.9974 107.702 61.1376 107.929 61.1489H113.234C113.456 61.1376 113.672 61.003 113.689 60.7729C113.717 60.3913 113.356 60.2341 113.223 60.1835C112.951 60.0713 112.857 59.9479 112.845 59.7682V55.9688C112.845 55.155 113.517 54.4984 114.349 54.4928C115.043 54.4872 115.77 54.476 115.953 54.4648C116.352 54.4366 116.696 54.3694 116.991 54.2626C117.823 53.9428 118.5 53.3423 119.033 52.4443C119.698 51.3556 120.026 49.9581 120.026 48.2463C120.026 47.1801 119.848 46.198 119.482 45.3056ZM115.27 51.3163C115.27 52.7754 114.399 53.5611 113.051 53.5611C112.934 53.5611 112.84 53.4657 112.84 53.3535V50.6653V43.2628C112.84 43.1505 112.934 43.0551 113.051 43.0551C114.399 43.0551 115.27 43.5602 115.27 45.0138V45.8051V51.3163Z" fill="white"/>
        <path class="animate-faster letter letter-06" d="M82.1256 43.5348C82.1256 43.5348 82.1256 43.5384 82.1305 43.542C82.3148 44.0667 82.6878 44.8899 83.1056 45.8118C83.9593 47.6956 85.2789 49.993 85.2789 51.0001C85.3114 51.1303 85.3451 51.2553 85.38 51.375V59.7518C85.375 59.9371 85.284 60.0662 85.013 60.1841C84.879 60.2403 84.544 60.3974 84.565 60.7735C84.581 60.998 84.789 61.1328 85.002 61.1496H90.097C90.309 61.1328 90.517 60.998 90.533 60.7735C90.56 60.3917 90.218 60.2403 90.085 60.1841C89.819 60.0662 89.728 59.9371 89.723 59.7518V50.1972C89.9202 49.6799 90.1793 49.052 90.4971 48.3103C90.7614 47.7039 91.0006 47.0794 91.2404 46.4533C91.6932 45.2714 92.1482 44.0837 92.7789 42.9999C92.8911 42.8071 93.0252 42.7639 93.2789 42.7245C93.61 42.673 93.5206 42.4305 93.5206 42.4305C93.5206 42.4305 93.5206 42.19 93.2789 42.1892C92.5387 42.1868 92.3013 42.1874 91.982 42.1882C91.7809 42.1887 91.5473 42.1893 91.1351 42.1893C90.921 42.1893 90.9173 42.3347 90.921 42.4308C90.9283 42.6196 91.0522 42.6479 91.2098 42.6543C91.3927 42.6617 91.6665 42.7965 91.5845 42.9999C90.7789 45 90.383 45.9544 89.5926 47.6442C89.399 48.0582 89.2421 48.2454 88.9341 48.2454C88.6514 48.2454 88.5361 48.195 88.4577 48.069C88.3638 47.9286 88.233 47.5577 88.233 47.5577L86.7631 44.3737C86.7374 44.3102 86.7122 44.2465 86.6875 44.184C86.6758 44.1546 86.6642 44.1253 86.6527 44.0965C86.622 44.0189 86.5937 43.9469 86.5674 43.8802C86.5266 43.7766 86.4909 43.6857 86.459 43.6068C86.4568 43.6018 86.4556 43.5969 86.4545 43.5923C86.4532 43.5869 86.452 43.5819 86.4493 43.578V43.5744C86.3961 43.4303 86.3603 43.3295 86.3448 43.2719L86.3389 43.2611L86.2557 43.0055V43.0019C86.2545 42.9973 86.2533 42.9928 86.2521 42.9884C86.2316 42.9112 86.2137 42.8439 86.4077 42.7895C86.5384 42.7535 86.7999 42.6742 86.7786 42.4294C86.7631 42.2817 86.5588 42.1954 86.3496 42.1882H81.4303C81.2212 42.1954 81.012 42.2817 81.0013 42.4258C80.9762 42.667 81.3102 42.7679 81.441 42.8039C81.4616 42.8098 81.482 42.8154 81.5023 42.8209C81.7284 42.8823 81.931 42.9374 82.0936 43.4232C82.0936 43.4268 82.0951 43.4303 82.0966 43.4339C82.098 43.4375 82.0995 43.4412 82.0995 43.4448C82.1043 43.4483 82.1043 43.452 82.1043 43.4591C82.1074 43.463 82.1086 43.4679 82.1098 43.4732C82.111 43.4779 82.1122 43.4829 82.115 43.488C82.115 43.5038 82.1194 43.5168 82.1238 43.5294L82.1256 43.5348Z" fill="white"/>
        <path class="animate-faster letter letter-05" d="M79.1136 60.5884C79.1036 60.8099 78.8866 60.9484 78.6766 60.9595H73.6506C73.4346 60.9484 73.2246 60.8099 73.2076 60.5884C73.1866 60.2172 73.5316 60.0621 73.6666 60.0068C73.9476 59.8904 74.0226 59.7576 74.0286 59.5637L74.0126 58.9101V58.8935C73.9906 57.7082 74.0446 56.2237 73.8996 54.4402C73.7316 52.3743 73.5316 51.6265 73.2996 50.7791C73.2076 50.4633 72.7706 49.6713 71.7286 49.6713C71.2806 49.6713 71.0646 49.8818 71.0646 50.3083C71.0646 50.4301 71.0756 50.5464 71.1086 50.6517C71.1296 50.7569 71.1506 50.8455 71.1666 50.9176C71.1786 50.9896 71.1886 51.128 71.1996 51.3275C71.2056 51.5268 71.2156 51.6985 71.2266 51.8536C71.2266 51.8647 71.2266 51.8702 71.2266 51.8813V59.5526C71.2316 59.7465 71.3136 59.8794 71.5936 59.9958C71.7286 60.0511 72.0686 60.2062 72.0476 60.5772C72.0306 60.7988 71.8206 60.9374 71.6036 60.9484H71.2216H66.4436C66.2266 60.9374 66.0166 60.7988 66.0016 60.5772C65.9796 60.2062 66.3196 60.0511 66.4546 59.9958C66.7296 59.8849 66.8156 59.752 66.8216 59.5693V43.4456C66.8156 43.2628 66.7296 43.1354 66.4546 43.0192C66.3196 42.9637 65.9736 42.8086 66.0016 42.4376C66.0166 42.216 66.2266 42.0831 66.4436 42.0664H71.6036C71.8206 42.0776 72.0256 42.2104 72.0416 42.4376C72.0636 42.8142 71.7236 42.9637 71.5886 43.0192C71.3286 43.1244 71.2376 43.2517 71.2216 43.4179V47.4558C71.2216 48.2977 71.5506 48.3475 71.7556 48.3364C71.8956 48.3309 72.0306 48.2921 72.1606 48.2367C72.2796 48.1869 72.3976 48.126 72.5226 48.0484C73.0356 47.7327 73.4346 47.3062 73.7146 46.78C73.9476 46.3591 74.8266 43.7004 75.0536 43.2739C75.6366 42.1938 76.3556 42 77.1546 42C77.5806 42 77.9426 42.1273 78.2446 42.3821C78.5466 42.6369 78.7416 43.0358 78.7416 43.5785C78.7416 44.0216 78.3526 44.9466 77.5106 44.9466C77.0356 44.9466 76.8576 44.8414 76.5656 44.7694C76.3066 44.7085 75.8856 44.6863 75.6966 45.1294C75.5566 45.4562 75.3786 45.9049 75.2316 46.3425C75.0436 46.9018 74.9466 47.1566 75.1466 47.6606C75.4586 48.4638 76.8626 49.123 77.4126 50.7015C77.9266 52.1582 78.1646 53.9141 78.1646 55.9468C78.1646 56.4343 78.2716 59.6468 78.2716 59.6468C78.2986 59.7963 78.4226 59.9071 78.6716 60.0068C78.7896 60.0621 79.1416 60.2172 79.1136 60.5884Z" fill="white"/>
        <path class="animate-faster letter letter-04" d="M61.3869 42.41C61.4881 42.2105 61.6024 42.0112 61.9281 42.0001H61.937C62.1702 41.9946 62.3726 42.2105 62.4122 42.4876C62.4474 42.7479 62.4914 42.9971 62.5398 43.2353C62.6718 43.8168 62.7642 44.2433 62.8214 44.5259C62.9358 45.052 62.9974 45.5062 62.9974 45.8939C62.9974 46.4035 62.9358 46.758 62.8214 46.9573C62.7246 47.1402 62.5529 47.262 62.3594 47.262C62.2317 47.262 62.1129 47.2066 62.0162 47.118C61.9281 47.0349 61.8577 46.9131 61.8093 46.7524C61.7695 46.6143 61.7211 46.4094 61.6595 46.1487C61.578 45.8038 61.4733 45.3609 61.335 44.8452C61.0532 44.6107 60.7446 44.3984 60.409 44.2085C59.8156 43.8673 59.1903 43.6967 58.533 43.6967C57.9579 43.6967 57.5151 43.8763 57.2047 44.2354C55.4747 46.1945 58.3624 48.987 59.9708 49.8171C62.9003 51.3665 64.2408 55.0188 62.9971 58.1056C62.6137 59.0572 62.0477 59.8023 61.2991 60.341C60.5597 60.8796 59.6605 61.1489 58.6015 61.1489C57.3508 61.1489 56.2462 60.8347 55.2876 60.2063C55.0995 60.0782 54.9194 59.9448 54.7474 59.8062C54.6748 59.8123 54.5886 59.7775 54.511 59.7462C54.2832 59.6543 54.1293 59.5922 54.6106 60.6818C54.5094 60.8813 54.395 61.0806 54.0694 61.0917H54.0605C53.8273 61.0972 53.6249 60.8813 53.5853 60.6042C53.5501 60.3439 53.5061 60.0947 53.4576 59.8565C53.3256 59.275 53.2332 58.8485 53.1761 58.5659C53.0617 58.0398 53 57.5856 53 57.1979C53 56.6883 53.0617 56.3338 53.1761 56.1345C53.2729 55.9516 53.4445 55.8298 53.6381 55.8298C53.7657 55.8298 53.8845 55.8852 53.9813 55.9738C54.0694 56.0569 54.1397 56.1787 54.1881 56.3393C54.2279 56.4775 54.2763 56.6824 54.338 56.9432C54.4031 57.2186 54.4829 57.5565 54.5829 57.9441C54.807 58.155 55.0465 58.3525 55.3013 58.5365C56.0225 59.0572 56.7985 59.3175 57.6292 59.3175C58.1679 59.3175 58.5741 59.1649 58.848 58.8597C60.9531 56.5892 58.0048 54.2138 56.2599 53.2106C53.5486 51.6008 52.4216 47.9702 53.5622 45.0703C53.9365 44.1187 54.4797 43.3736 55.1918 42.8349C55.913 42.2783 56.7757 42 57.7799 42C58.7384 42 59.6194 42.2155 60.4227 42.6464C60.8312 42.863 61.2017 43.1024 61.534 43.3644C61.733 43.4405 61.8337 43.4217 61.3869 42.41Z" fill="white"/>
        <path class="animate-faster letter letter-03" d="M48.3869 42.41C48.4881 42.2105 48.6024 42.0112 48.9281 42.0001H48.937C49.1702 41.9946 49.3726 42.2105 49.4122 42.4876C49.4474 42.7479 49.4914 42.9971 49.5398 43.2353C49.6718 43.8168 49.7642 44.2433 49.8214 44.5259C49.9358 45.052 49.9974 45.5062 49.9974 45.8939C49.9974 46.4035 49.9358 46.758 49.8214 46.9573C49.7246 47.1402 49.5529 47.262 49.3594 47.262C49.2317 47.262 49.1129 47.2066 49.0162 47.118C48.9281 47.0349 48.8577 46.9131 48.8093 46.7524C48.7695 46.6143 48.7211 46.4094 48.6595 46.1487C48.578 45.8038 48.4733 45.3609 48.335 44.8452C48.0532 44.6107 47.7446 44.3984 47.409 44.2085C46.8156 43.8673 46.1903 43.6967 45.533 43.6967C44.9579 43.6967 44.5151 43.8763 44.2047 44.2354C42.4747 46.1945 45.3624 48.987 46.9708 49.8171C49.9003 51.3665 51.2408 55.0188 49.9971 58.1056C49.6137 59.0572 49.0477 59.8023 48.2991 60.341C47.5597 60.8796 46.6605 61.1489 45.6015 61.1489C44.3508 61.1489 43.2462 60.8347 42.2876 60.2063C42.0995 60.0782 41.9194 59.9448 41.7474 59.8062C41.6748 59.8123 41.5886 59.7775 41.511 59.7462C41.2832 59.6543 41.1293 59.5922 41.6106 60.6818C41.5094 60.8813 41.395 61.0806 41.0694 61.0917H41.0605C40.8273 61.0972 40.6249 60.8813 40.5853 60.6042C40.5501 60.3439 40.5061 60.0947 40.4576 59.8565C40.3256 59.275 40.2332 58.8485 40.1761 58.5659C40.0617 58.0398 40 57.5856 40 57.1979C40 56.6883 40.0617 56.3338 40.1761 56.1345C40.2729 55.9516 40.4445 55.8298 40.6381 55.8298C40.7657 55.8298 40.8845 55.8852 40.9813 55.9738C41.0694 56.0569 41.1397 56.1787 41.1881 56.3393C41.2279 56.4775 41.2763 56.6824 41.338 56.9432C41.4031 57.2186 41.4829 57.5565 41.5829 57.9441C41.807 58.155 42.0465 58.3525 42.3013 58.5365C43.0225 59.0572 43.7985 59.3175 44.6292 59.3175C45.1679 59.3175 45.5741 59.1649 45.848 58.8597C47.9531 56.5892 45.0048 54.2138 43.2599 53.2106C40.5486 51.6008 39.4216 47.9702 40.5622 45.0703C40.9365 44.1187 41.4797 43.3736 42.1918 42.8349C42.913 42.2783 43.7757 42 44.7799 42C45.7384 42 46.6194 42.2155 47.4227 42.6464C47.8312 42.863 48.2017 43.1024 48.534 43.3644C48.733 43.4405 48.8337 43.4217 48.3869 42.41Z" fill="white"/>
        <path class="animate-faster letter letter-02" d="M24.8186 43.3959C24.8026 43.2268 24.7024 43.1015 24.4538 42.995C24.3215 42.9386 23.9808 42.7799 24.0008 42.403C24.0169 42.1775 24.2293 42.0418 24.4418 42.0251H27.5446C27.6688 41.9916 27.8051 41.9916 27.9294 42.0251H29.577C29.7934 42.0365 29.9979 42.1723 30.0099 42.403C30.0219 42.6452 29.8937 42.7956 29.7614 42.8874C29.6852 42.9407 29.609 42.9741 29.5609 42.995C29.3084 43.1015 29.2162 43.2205 29.1961 43.3896L29.2002 55.4599C29.2002 56.4085 29.4858 59.9003 30.7916 59.9003C32.1131 59.9003 32.3991 56.4176 32.3991 55.4599L32.4031 43.3896C32.3951 43.3124 32.3711 43.2456 32.323 43.185C32.2628 43.114 32.1746 43.0524 32.0383 42.995C31.906 42.9386 31.5693 42.7862 31.5894 42.403C31.6014 42.1723 31.8058 42.0365 32.0223 42.0251H33.6699C33.7942 41.9916 33.9304 41.9916 34.0547 42.0251H37.1575C37.3699 42.0418 37.5824 42.1775 37.5984 42.403C37.6185 42.7799 37.2777 42.9386 37.1454 42.995C37.0091 43.0545 36.9169 43.1192 36.8608 43.1944C36.8127 43.2549 36.7887 43.3207 36.7806 43.3959L36.7766 55.4599C36.7766 57.452 36.1272 58.9324 35.2694 59.9003C34.2672 61.0216 32.6019 61.1506 30.7916 61.1489C28.9874 61.1473 27.3281 61.0174 26.3299 59.9003C25.472 58.9324 24.8226 57.452 24.8226 55.4599L24.8186 43.3959Z" fill="white"/>
        <path class="animate-faster letter letter-01"d="M20.5975 45.3056C20.1045 44.0765 19.4614 43.2234 18.3148 42.5612C17.6127 42.1684 17.2323 42.0392 16.0694 42H9.81597H9.43552C9.2212 42.0112 9.01218 42.146 9.00148 42.376C8.9747 42.7577 9.31766 42.9091 9.45161 42.9653C9.7302 43.0831 9.81597 43.2234 9.81597 43.4142V59.7514C9.81057 59.9366 9.7249 60.0713 9.45161 60.1835C9.32296 60.2397 8.97999 60.3969 9.00148 60.7729C9.01218 60.9974 9.2212 61.1376 9.44081 61.1489H14.5637C14.778 61.1376 14.9871 61.003 15.003 60.7729C15.0298 60.3913 14.6816 60.2341 14.5529 60.1835C14.2904 60.0713 14.1993 59.9479 14.1886 59.7682V55.9688C14.1886 55.155 14.9455 54.4017 15.7493 54.3961C16.4191 54.3905 16.6044 55.0175 16.6044 55.474C16.6044 56.013 16.6044 59.5237 16.6044 60.0802C16.6044 60.3246 16.0576 60.524 16.0576 60.7729C16.0576 60.9775 16.2032 61.1489 16.4573 61.1489C17.7008 61.1489 20.1771 61.1489 21.2285 61.1489C21.4294 61.1489 21.5532 61.0229 21.5532 60.7729C21.5532 60.5229 21.1227 60.3894 21.1227 60.0802C21.1227 57.7947 21.1227 56.5519 21.1227 55.474C21.1227 54.3961 20.941 52.2402 19.3835 52.2402C20.941 51.7013 21.1227 49.9581 21.1227 48.2463C21.1227 47.1801 20.9511 46.198 20.5975 45.3056ZM16.5303 51.3163C16.5303 52.7754 15.689 53.5611 14.3869 53.5611C14.2743 53.5611 14.1833 53.4657 14.1833 53.3535V50.6653V43.2628C14.1833 43.1505 14.2743 43.0551 14.3869 43.0551C15.689 43.0551 16.5303 43.5602 16.5303 45.0138V45.8051V51.3163Z" fill="white"/>
	</g>
	-->
	<defs>
		<radialGradient id="paint0_radial_459_107" cx="0" cy="0" r="1" gradientUnits="userSpaceOnUse" gradientTransform="translate(106.367 51.8028) scale(32.0746 32.9081)">
			<stop stop-color="#FFEA00"></stop>
			<stop offset="0.489583" stop-color="#FFEA00"></stop>
			<stop offset="0.619792" stop-color="#FFE902"></stop>
			<stop offset="0.682292" stop-color="#FFE809"></stop>
			<stop offset="0.713542" stop-color="#FEE415"></stop>
			<stop offset="0.755208" stop-color="#FDDF27"></stop>
			<stop offset="0.78125" stop-color="#FCD93E"></stop>
			<stop offset="0.817708" stop-color="#FBD25A"></stop>
			<stop offset="0.875" stop-color="#F9C97C"></stop>
			<stop offset="0.9967" stop-color="#F7BDA7"></stop>
			<stop offset="0.9968" stop-color="#F7BEA2"></stop>
		</radialGradient>
	</defs>
</svg>
